<svg width="607" height="237" viewBox="0 0 607 237" fill="none" xmlns="http://www.w3.org/2000/svg">
    <g clip-path="url(#clip0_0_602)">
        <path d="M119.196 173.168C116.235 173.168 113.274 172.927 110.245 172.411C96.1972 170.034 83.9401 162.317 75.677 150.709C67.4138 139.1 64.2118 124.942 66.5874 110.887C68.9631 96.8324 76.6754 84.569 88.2783 76.3016C99.8812 68.0341 114.032 64.8305 128.079 67.2074C142.127 69.5843 154.384 77.3006 162.647 88.9094C170.91 100.518 174.112 114.676 171.736 128.731C167.364 154.739 144.743 173.168 119.196 173.168ZM119.162 67.5174C94.1314 67.5174 71.9585 85.6025 67.6548 111.094C65.3135 124.873 68.4811 138.721 76.5721 150.123C84.6632 161.525 96.6792 169.069 110.451 171.412C124.223 173.754 138.064 170.585 149.46 162.49C160.857 154.394 168.397 142.372 170.738 128.593C173.079 114.814 169.912 100.966 161.821 89.5639C153.73 78.1618 141.714 70.6177 127.942 68.2753C124.981 67.7586 122.054 67.5174 119.162 67.5174Z" fill="white"/>
        <path d="M114.652 167.795C112.069 167.795 109.522 167.588 107.112 167.175C96.2317 165.349 86.0405 157.15 79.12 144.68C72.6128 132.968 69.8928 119.155 71.8209 107.718C73.6457 96.8324 81.84 86.6359 94.3036 79.7119C106.01 73.2013 119.816 70.4799 131.247 72.409C142.127 74.2347 152.318 82.4333 159.239 94.9033C165.746 106.616 168.466 120.429 166.538 131.866C164.713 142.751 156.519 152.948 144.055 159.872C134.862 165.039 124.327 167.795 114.652 167.795ZM107.421 165.487C118.473 167.347 131.867 164.694 143.229 158.39C155.21 151.708 163.06 141.959 164.816 131.625C166.675 120.567 164.024 107.167 157.724 95.799C151.044 83.8112 141.301 75.9571 130.972 74.2003C119.92 72.3401 106.526 74.9926 95.1644 81.2965C83.1828 87.9794 75.3327 97.728 73.5768 108.062C71.7176 119.12 74.3687 132.52 80.6694 143.888C87.3144 155.841 97.0925 163.73 107.421 165.487Z" fill="white"/>
        <path d="M110.141 162.455C107.938 162.455 105.838 162.317 103.978 161.973C95.853 160.595 88.0374 152.086 82.5286 138.617C77.7084 126.836 75.5393 113.471 77.0542 104.618C78.4314 96.4879 86.9356 88.6683 100.398 83.1567C112.173 78.334 125.532 76.1638 134.415 77.6795C142.54 79.0574 150.356 87.566 155.864 101.035C160.685 112.816 162.854 126.182 161.339 135.035C159.962 143.165 151.457 150.984 137.995 156.496C128.699 160.319 118.439 162.455 110.141 162.455ZM128.32 79.643C120.367 79.643 110.245 81.7443 101.327 85.3958C88.6916 90.5974 80.7038 97.728 79.4988 105.031C78.0871 113.333 80.2218 126.492 84.8354 137.722C90.0343 150.364 97.1613 158.356 104.46 159.562C112.793 160.974 125.91 158.838 137.134 154.222C149.77 149.021 157.758 141.89 158.963 134.587C160.375 126.285 158.24 113.126 153.626 101.896C148.428 89.2539 141.301 81.262 134.001 80.0564C132.245 79.7808 130.352 79.643 128.32 79.643Z" fill="white"/>
        <path d="M105.493 157.081C103.703 157.081 102.119 156.978 100.845 156.771C87.4865 154.498 80.4628 112.196 82.2532 101.483C84.5256 88.1172 126.806 81.0898 137.513 82.8811C145.191 84.1901 150.183 98.6581 152.456 107.167C155.555 118.741 157.104 132.072 156.105 138.135C154.797 145.817 140.337 150.812 131.832 153.085C122.64 155.566 112.379 157.081 105.493 157.081ZM132.418 85.6714C117.372 85.6714 86.8324 93.181 85.3519 102C83.3205 114.091 91.4804 151.983 101.362 153.671C107.043 154.636 119.782 153.085 131.006 150.089C144.055 146.575 152.284 141.924 153.007 137.653C153.971 131.969 152.421 119.223 149.426 107.993C145.914 94.9378 141.266 86.7048 136.997 85.9814C135.723 85.7747 134.174 85.6714 132.418 85.6714Z" fill="white"/>
        <path d="M101.017 151.708C99.5369 151.708 98.4007 151.639 97.7121 151.535C96.025 151.26 92.5132 150.64 89.2768 126.182C87.7619 114.642 86.9355 101.655 87.4864 98.3137C87.7619 96.6257 88.3816 93.1121 112.827 89.874C124.361 88.3583 137.341 87.5315 140.681 88.0827C142.368 88.3583 145.88 88.9783 149.116 113.436C150.631 124.976 151.457 137.963 150.906 141.304C150.631 142.992 150.011 146.506 125.566 149.744C116.476 150.915 106.457 151.708 101.017 151.708ZM98.4696 147.781C101.224 148.159 112.517 147.539 123.913 146.093C140.509 143.991 146.293 141.58 147.119 140.547C147.498 137.791 146.878 126.492 145.432 115.09C143.332 98.4859 140.922 92.6987 139.889 91.8719C137.134 91.493 125.841 92.1131 114.445 93.5599C97.8498 95.6612 92.0656 98.0725 91.2393 99.106C90.8606 101.862 91.4803 113.161 92.9263 124.563C95.0266 141.167 97.4367 146.954 98.4696 147.781Z" fill="white"/>
        <path d="M119.162 140.615C107.697 140.615 98.3662 131.28 98.3662 119.809C98.3662 108.338 107.697 99.0026 119.162 99.0026C130.627 99.0026 139.958 108.338 139.958 119.809C139.992 131.28 130.662 140.615 119.162 140.615ZM119.162 105.41C111.209 105.41 104.77 111.886 104.77 119.809C104.77 127.766 111.243 134.208 119.162 134.208C127.115 134.208 133.554 127.732 133.554 119.809C133.588 111.886 127.115 105.41 119.162 105.41Z" fill="white"/>
        <path d="M413.297 82.7777V92.492H411.507V88.3238H406.48V92.492H404.69V82.7777H406.48V86.8081H411.507V82.8122H413.297V82.7777Z" fill="white"/>
        <path d="M422.49 90.2529H417.635L416.671 92.492H414.812L419.185 82.7777H420.941L425.313 92.492H423.419L422.49 90.2529ZM421.905 88.8405L420.08 84.6035L418.255 88.8405H421.905Z" fill="white"/>
        <path d="M436.778 90.9763V94.6277H435.126V92.492H426.897V82.7777H428.653V90.9418H433.542V82.7777H435.332V90.9418H436.778V90.9763Z" fill="white"/>
        <path d="M438.396 82.7777H440.152V89.6673L445.351 82.7777H447.038V92.492H445.282V85.6024L440.084 92.492H438.396V82.7777Z" fill="white"/>
        <path d="M448.966 87.6349C448.966 84.7757 451.17 82.64 454.2 82.64C457.195 82.64 459.433 84.7413 459.433 87.6349C459.433 90.5285 457.23 92.6298 454.2 92.6298C451.204 92.6298 448.966 90.494 448.966 87.6349ZM457.608 87.6349C457.608 85.6369 456.162 84.2245 454.2 84.2245C452.237 84.2245 450.791 85.6369 450.791 87.6349C450.791 89.6328 452.237 91.0452 454.2 91.0452C456.162 91.0452 457.608 89.6328 457.608 87.6349Z" fill="white"/>
        <path d="M469.969 82.7777V92.492H468.178V88.3238H463.152V92.492H461.361V82.7777H463.152V86.8081H468.178V82.8122H469.969V82.7777Z" fill="white"/>
        <path d="M479.161 90.2529H474.307L473.343 92.492H471.484L475.856 82.7777H477.612L481.985 92.492H480.091L479.161 90.2529ZM478.542 88.8405L476.717 84.6035L474.892 88.8405H478.542Z" fill="white"/>
        <path d="M492.383 82.7777V92.492H490.627V84.3279H486.805L486.736 86.7392C486.598 90.5629 486.048 92.6298 483.947 92.6298C483.637 92.6298 483.328 92.5609 482.949 92.492L483.087 90.9418C483.224 90.9763 483.362 91.0107 483.5 91.0107C484.67 91.0107 485.049 89.5639 485.118 86.8426L485.256 82.8122H492.383V82.7777Z" fill="white"/>
        <path d="M503.056 89.185C503.056 91.3552 501.61 92.492 499.165 92.492H494.999V82.7777H496.755V86.0503H499.441C501.748 86.0847 503.056 87.1181 503.056 89.185ZM501.231 89.2195C501.231 88.0138 500.439 87.4626 499.028 87.4626H496.721V91.1141H499.028C500.439 91.1141 501.231 90.4596 501.231 89.2195Z" fill="white"/>
        <path d="M513.385 82.7777V92.492H511.594V88.3238H506.568V92.492H504.777V82.7777H506.568V86.8081H511.594V82.8122H513.385V82.7777Z" fill="white"/>
        <path d="M524.058 89.185C524.058 91.3552 522.612 92.492 520.168 92.492H516.002V82.7777H517.758V86.0503H520.443C522.75 86.0847 524.058 87.1181 524.058 89.185ZM522.233 89.2195C522.233 88.0138 521.442 87.4626 520.03 87.4626H517.723V91.1141H520.03C521.442 91.1141 522.233 90.4596 522.233 89.2195ZM525.435 82.7777H527.191V92.492H525.435V82.7777Z" fill="white"/>
        <path d="M529.842 82.7777H531.598V89.6673L536.797 82.7777H538.484V92.492H536.728V85.6025L531.529 92.492H529.842V82.7777ZM531.633 80.1253H532.907C532.907 80.8142 533.354 81.1931 534.181 81.1931C534.972 81.1931 535.454 80.8142 535.454 80.1253H536.694C536.694 81.3998 535.833 82.1232 534.146 82.1232C532.459 82.1232 531.633 81.4343 531.633 80.1253Z" fill="white"/>
        <path d="M403.967 104.273C403.967 101.414 406.17 99.2782 409.2 99.2782C412.195 99.2782 414.433 101.38 414.433 104.273C414.433 107.167 412.23 109.268 409.2 109.268C406.17 109.234 403.967 107.132 403.967 104.273ZM412.574 104.273C412.574 102.275 411.128 100.863 409.165 100.863C407.203 100.863 405.757 102.275 405.757 104.273C405.757 106.271 407.203 107.683 409.165 107.683C411.128 107.683 412.574 106.237 412.574 104.273Z" fill="white"/>
        <path d="M423.282 100.932H420.08V109.096H418.289V100.932H415.087V99.416H423.282V100.932Z" fill="white"/>
        <path d="M428.412 105.031H426.621V109.13H424.865V99.416H426.621V103.481H428.481L431.269 99.416H433.198L429.892 104.101L433.335 109.096H431.304L428.412 105.031Z" fill="white"/>
        <path d="M442.976 102.861C442.976 104.997 441.392 106.306 438.844 106.306H436.641V109.096H434.85V99.3815H438.844C441.392 99.416 442.976 100.725 442.976 102.861ZM441.151 102.861C441.151 101.655 440.325 100.932 438.741 100.932H436.641V104.79H438.741C440.325 104.79 441.151 104.066 441.151 102.861Z" fill="white"/>
        <path d="M452.754 105.789C452.754 107.959 451.308 109.096 448.863 109.096H444.697V99.3815H446.453V102.654H449.139C451.445 102.689 452.754 103.722 452.754 105.789ZM450.963 105.823C450.963 104.618 450.172 104.066 448.76 104.066H446.453V107.718H448.76C450.172 107.718 450.963 107.063 450.963 105.823ZM454.165 99.416H455.921V109.13H454.165V99.416Z" fill="white"/>
        <path d="M465.699 100.932H462.497V109.096H460.707V100.932H457.505V99.416H465.699V100.932Z" fill="white"/>
        <path d="M475.34 105.789C475.34 107.959 473.894 109.096 471.449 109.096H467.283V99.3815H469.039V102.654H471.725C474.066 102.689 475.34 103.722 475.34 105.789ZM473.549 105.823C473.549 104.618 472.758 104.066 471.346 104.066H469.039V107.718H471.346C472.758 107.718 473.549 107.063 473.549 105.823ZM476.751 99.416H478.507V109.13H476.751V99.416Z" fill="white"/>
        <path d="M481.124 99.416H482.88V106.305L488.079 99.416H489.766V109.13H488.01V102.241L482.811 109.13H481.124V99.416ZM482.914 96.7635H484.188C484.188 97.4524 484.636 97.8314 485.462 97.8314C486.254 97.8314 486.736 97.4524 486.736 96.7635H487.976C487.976 98.0381 487.115 98.7615 485.428 98.7615C483.775 98.7615 482.949 98.0381 482.914 96.7635Z" fill="white"/>
        <path d="M412.264 116.02V125.734H410.474V122.083C409.544 122.427 408.683 122.599 407.857 122.599C405.378 122.599 404.001 121.359 404.001 119.12V116.02H405.791V118.913C405.791 120.291 406.618 121.015 408.098 121.015C408.89 121.015 409.716 120.842 410.474 120.498V116.02H412.264Z" fill="white"/>
        <path d="M422.111 124.218V125.734H414.846V116.02H421.905V117.535H416.637V120.05H421.319V121.531H416.637V124.218H422.111Z" fill="white"/>
        <path d="M432.922 125.734V119.292L429.72 124.597H428.928L425.726 119.361V125.734H424.039V116.02H425.52L429.341 122.427L433.129 116.02H434.609L434.644 125.734H432.922Z" fill="white"/>
        <path d="M445.833 116.02V125.734H444.077V117.57H439.051V125.734H437.295V116.02H445.833Z" fill="white"/>
        <path d="M448.416 116.02H450.171V122.909L455.37 116.02H457.057V125.734H455.302V118.844L450.103 125.7H448.416V116.02Z" fill="white"/>
        <path d="M458.986 120.877C458.986 118.018 461.189 115.882 464.219 115.882C467.214 115.882 469.452 117.983 469.452 120.877C469.452 123.77 467.249 125.872 464.219 125.872C461.224 125.872 458.986 123.736 458.986 120.877ZM467.628 120.877C467.628 118.879 466.181 117.467 464.219 117.467C462.256 117.467 460.81 118.879 460.81 120.877C460.81 122.875 462.256 124.287 464.219 124.287C466.147 124.287 467.628 122.875 467.628 120.877Z" fill="white"/>
        <path d="M479.988 116.02V125.734H478.198V121.566H473.171V125.734H471.38V116.02H473.171V120.016H478.198V116.02H479.988Z" fill="white"/>
        <path d="M489.181 123.495H484.326L483.362 125.734H481.503L485.875 116.02H487.631L492.004 125.734H490.11L489.181 123.495ZM488.561 122.083L486.736 117.845L484.911 122.083H488.561Z" fill="white"/>
        <path d="M499.613 117.57H496.411V125.734H494.621V117.57H491.419V116.054H499.613V117.57Z" fill="white"/>
        <path d="M411.713 134.174H408.511V142.338H406.721V134.174H403.519V132.658H411.713V134.174Z" fill="white"/>
        <path d="M421.56 139.651C421.56 141.339 420.286 142.338 417.876 142.338H413.263V132.624H417.601C419.77 132.624 421.078 133.519 421.078 135.104C421.078 136.137 420.562 136.861 419.667 137.274C420.872 137.653 421.56 138.445 421.56 139.651ZM415.053 136.792H417.463C418.634 136.792 419.253 136.309 419.253 135.414C419.253 134.484 418.634 134.036 417.463 134.036H415.053V136.792ZM419.735 139.513C419.735 138.549 419.081 138.101 417.842 138.101H415.087V140.96H417.842C419.081 140.96 419.735 140.512 419.735 139.513Z" fill="white"/>
        <path d="M422.903 137.515C422.903 134.656 425.106 132.52 428.136 132.52C431.132 132.52 433.37 134.622 433.37 137.515C433.37 140.409 431.166 142.51 428.136 142.51C425.106 142.476 422.903 140.374 422.903 137.515ZM431.545 137.515C431.545 135.517 430.099 134.105 428.136 134.105C426.174 134.105 424.728 135.517 424.728 137.515C424.728 139.513 426.174 140.925 428.136 140.925C430.064 140.925 431.545 139.479 431.545 137.515Z" fill="white"/>
        <path d="M443.389 136.103C443.389 138.239 441.805 139.548 439.257 139.548H437.054V142.338H435.263V132.624H439.257C441.805 132.658 443.389 133.967 443.389 136.103ZM441.564 136.103C441.564 134.897 440.738 134.174 439.154 134.174H437.054V138.032H439.154C440.738 138.032 441.564 137.308 441.564 136.103Z" fill="white"/>
        <path d="M452.995 132.658V142.372H451.204V138.721C450.275 139.065 449.414 139.237 448.588 139.237C446.109 139.237 444.732 137.997 444.732 135.758V132.658H446.522V135.552C446.522 136.929 447.348 137.653 448.829 137.653C449.621 137.653 450.447 137.481 451.204 137.136V132.658H452.995Z" fill="white"/>
        <path d="M462.842 140.857V142.372H455.577V132.658H462.67V134.174H457.402V136.688H462.084V138.17H457.402V140.857H462.842Z" fill="white"/>
        <path d="M463.909 137.515C463.909 134.622 466.113 132.52 469.108 132.52C470.692 132.52 472.035 133.071 472.93 134.139L471.759 135.242C471.036 134.484 470.175 134.105 469.177 134.105C467.18 134.105 465.699 135.517 465.699 137.515C465.699 139.513 467.145 140.925 469.177 140.925C470.175 140.925 471.07 140.547 471.759 139.789L472.93 140.891C472.035 141.959 470.657 142.51 469.074 142.51C466.147 142.476 463.909 140.409 463.909 137.515Z" fill="white"/>
        <path d="M478.163 138.273H476.373V142.372H474.617V132.658H476.373V136.723H478.232L481.021 132.658H482.914L479.609 137.343L483.052 142.338H481.021L478.163 138.273Z" fill="white"/>
        <path d="M484.601 132.658H486.357V139.548L491.556 132.658H493.243V142.372H491.487V135.517L486.289 142.372H484.601V132.658Z" fill="white"/>
        <path d="M497.1 132.658L499.372 135.896L501.644 132.658H503.745L500.474 137.308L503.986 142.338H501.851L499.338 138.79L496.824 142.338H494.758L498.27 137.377L494.999 132.658H497.1Z" fill="white"/>
        <path d="M408.27 154.877H406.48V158.976H404.724V149.262H406.48V153.327H408.339L411.128 149.262H413.056L409.716 153.981L413.159 158.976H411.128L408.27 154.877Z" fill="white"/>
        <path d="M413.573 154.119C413.573 151.26 415.776 149.124 418.806 149.124C421.801 149.124 424.039 151.225 424.039 154.119C424.039 157.012 421.836 159.114 418.806 159.114C415.776 159.114 413.573 156.978 413.573 154.119ZM422.214 154.119C422.214 152.121 420.768 150.709 418.806 150.709C416.843 150.709 415.397 152.121 415.397 154.119C415.397 156.117 416.843 157.529 418.806 157.529C420.734 157.529 422.214 156.117 422.214 154.119Z" fill="white"/>
        <path d="M434.85 158.976V152.534L431.648 157.839H430.856L427.654 152.603V158.942H425.967V149.227H427.448L431.27 155.635L435.057 149.227H436.537L436.572 158.942H434.85V158.976Z" fill="white"/>
        <path d="M447.727 149.262V158.976H445.971V150.812H440.944V158.976H439.188V149.262H447.727Z" fill="white"/>
        <path d="M457.608 157.46V158.976H450.344V149.262H457.402V150.777H452.134V153.292H456.816V154.773H452.134V157.46H457.608Z" fill="white"/>
        <path d="M466.905 150.812H463.703V158.976H461.912V150.812H458.71V149.296H466.905V150.812Z" fill="white"/>
        <path d="M475.719 157.46V158.976H468.454V149.262H475.512V150.777H470.244V153.292H474.927V154.773H470.244V157.46H475.719Z" fill="white"/>
        <path d="M486.254 149.262V158.976H484.464V154.808H479.437V158.976H477.647V149.262H479.437V153.292H484.464V149.296H486.254V149.262Z" fill="white"/>
        <path d="M498.752 157.46V161.112H497.099V158.976H488.871V149.262H490.627V157.426H495.516V149.262H497.306V157.426H498.752V157.46Z" fill="white"/>
        <path d="M500.37 149.262H502.126V156.151L507.325 149.262H509.012V158.976H507.256V152.086L502.057 158.976H500.37V149.262Z" fill="white"/>
        <path d="M511.629 149.262H513.385V156.151L518.584 149.262H520.271V158.976H518.515V152.086L513.316 158.976H511.629V149.262ZM513.419 146.609H514.693C514.693 147.298 515.141 147.677 515.967 147.677C516.759 147.677 517.241 147.298 517.241 146.609H518.48C518.48 147.884 517.62 148.607 515.933 148.607C514.246 148.607 513.419 147.918 513.419 146.609Z" fill="white"/>
        <path d="M380.554 70.7211H379.074V167.829H380.554V70.7211Z" fill="white"/>
        <path d="M197.765 158.632C197.765 158.632 204.617 154.911 206.373 153.809C208.68 152.431 211.71 150.502 211.71 147.953C211.71 145.472 209.678 143.957 206.407 143.957C203.171 143.957 200.416 145.576 198.316 147.298V144.06C200.21 142.476 202.792 140.994 206.683 140.994C211.641 140.994 214.946 143.647 214.946 147.539C214.946 151.294 211.71 153.637 208.645 155.29L203.481 158.115H216.013V161.077H197.765V158.632Z" fill="white"/>
        <path d="M242.18 151.329C242.18 156.875 237.945 161.594 231.576 161.594C225.241 161.594 220.971 156.875 220.971 151.329C220.971 145.783 225.241 141.029 231.576 141.029C237.945 141.029 242.18 145.783 242.18 151.329ZM238.909 151.329C238.909 147.126 235.81 143.888 231.576 143.888C227.341 143.888 224.242 147.126 224.242 151.329C224.242 155.497 227.341 158.735 231.576 158.735C235.81 158.735 238.909 155.497 238.909 151.329Z" fill="white"/>
        <path d="M247.104 158.632C247.104 158.632 253.955 154.911 255.711 153.809C258.018 152.431 261.048 150.502 261.048 147.953C261.048 145.472 259.016 143.957 255.745 143.957C252.509 143.957 249.755 145.576 247.654 147.298V144.06C249.548 142.476 252.13 140.994 256.021 140.994C260.979 140.994 264.284 143.647 264.284 147.539C264.284 151.294 261.048 153.637 257.983 155.29L252.819 158.115H265.351V161.077H247.104V158.632Z" fill="white"/>
        <path d="M217.838 84.0178V103.722H214.636V100.691C213.19 102.654 210.642 104.239 207.13 104.239C201.277 104.239 197.318 99.4849 197.318 93.9043C197.318 88.2894 201.312 83.5356 207.13 83.5356C210.677 83.5356 213.19 85.1546 214.636 87.0837V84.0523H217.838V84.0178ZM214.636 90.6663C213.534 88.2205 210.952 86.3947 207.922 86.3947C203.653 86.3947 200.554 89.6328 200.554 93.8699C200.554 98.0381 203.653 101.311 207.922 101.311C210.883 101.311 213.5 99.4504 214.636 97.0391V90.6663Z" fill="white"/>
        <path d="M224.552 84.0178H227.788V87.7038C229.441 84.9824 232.574 83.5356 235.535 83.5356V86.7737C232.23 86.9115 229.166 88.4272 227.788 91.3552V103.722H224.552V84.0178Z" fill="white"/>
        <path d="M239.598 98.2103V78.0584H242.834V84.0179H249.583V86.8081H242.834V97.2458C242.834 100.174 243.798 101.242 246.174 101.242C247.551 101.242 248.653 100.863 249.342 100.415V103.309C248.515 103.825 246.759 104.204 245.244 104.204C241.388 104.204 239.598 101.724 239.598 98.2103Z" fill="white"/>
        <path d="M198.144 112.472H203.86V114.952C205.065 113.333 207.199 111.955 210.023 111.955C213.225 111.955 215.497 113.677 216.323 115.4C217.632 113.54 220.214 111.955 223.313 111.955C227.513 111.955 230.543 114.607 230.543 120.085V132.761H224.827V121.394C224.827 117.777 222.865 117.225 221.453 117.225C219.663 117.225 217.976 118.5 217.218 119.981V132.796H211.503V121.428C211.503 117.845 209.541 117.26 208.129 117.26C206.373 117.26 204.652 118.466 203.86 119.947V132.83H198.144V112.472Z" fill="white"/>
        <path d="M234.743 122.599C234.743 116.674 238.668 111.955 244.28 111.955C247.689 111.955 249.789 113.505 250.925 114.952V112.472H256.641V132.761H250.925V130.281C249.789 131.797 247.689 133.278 244.28 133.278C238.703 133.278 234.743 128.559 234.743 122.599ZM250.96 125.217V119.947C250.099 118.362 248.274 116.95 245.933 116.95C242.731 116.95 240.459 119.43 240.459 122.599C240.459 125.803 242.731 128.283 245.933 128.283C248.274 128.283 250.099 126.871 250.96 125.217Z" fill="white"/>
        <path d="M261.599 131.383V126.32C263.045 127.284 266.212 128.628 269.896 128.628C272.134 128.628 273.374 128.008 273.374 126.905C273.374 125.493 271.136 125.286 268.175 124.459C263.871 123.323 261.599 121.945 261.599 118.156C261.599 114.297 264.938 111.955 270.516 111.955C273.27 111.955 276.3 112.678 278.125 113.815V118.707C276.3 117.639 273.546 116.605 270.757 116.605C268.519 116.605 267.521 117.26 267.521 118.224C267.521 119.671 270 119.947 272.547 120.532C276.679 121.497 279.158 123.254 279.158 126.94C279.158 130.694 275.612 133.278 270.103 133.278C266.66 133.278 263.423 132.52 261.599 131.383Z" fill="white"/>
        <path d="M283.393 106.926H289.108V112.506H294.858V117.294H289.108V125.355C289.108 127.387 289.969 128.214 291.863 128.214C292.964 128.214 293.928 127.939 294.824 127.491V132.245C293.722 132.934 291.69 133.347 290.003 133.347C285.424 133.347 283.393 130.763 283.393 126.526V106.926Z" fill="white"/>
        <path d="M297.957 122.599C297.957 116.709 302.088 111.955 308.527 111.955C314.655 111.955 318.201 116.915 318.201 122.668V124.184H303.672C304.292 127.077 307.012 128.421 310.455 128.421C312.899 128.421 315.137 127.698 316.962 126.63V131.211C315.309 132.486 312.383 133.278 309.25 133.278C303.052 133.278 297.957 129.213 297.957 122.599ZM312.52 120.532C312.452 118.431 310.902 116.468 308.251 116.468C305.566 116.468 303.878 118.224 303.637 120.532H312.52Z" fill="white"/>
        <path d="M322.367 112.472H328.083V115.882C329.185 113.884 331.973 111.955 335.141 111.955C335.348 111.955 335.554 111.955 335.795 111.989V117.604C335.244 117.432 334.624 117.398 334.005 117.398C331.009 117.398 328.806 119.292 328.083 120.946V132.761H322.367V112.472Z" fill="white"/>
        <path d="M338.377 131.383V126.32C339.823 127.284 342.991 128.628 346.675 128.628C348.913 128.628 350.152 128.008 350.152 126.905C350.152 125.493 347.915 125.286 344.954 124.459C340.65 123.323 338.377 121.945 338.377 118.156C338.377 114.297 341.717 111.955 347.295 111.955C350.049 111.955 353.079 112.678 354.904 113.815V118.707C353.079 117.639 350.325 116.605 347.57 116.605C345.332 116.605 344.334 117.26 344.334 118.224C344.334 119.671 346.813 119.947 349.361 120.532C353.492 121.497 355.971 123.254 355.971 126.94C355.971 130.694 352.425 133.278 346.916 133.278C343.473 133.278 340.202 132.52 338.377 131.383Z" fill="white"/>
        <path d="M281.981 149.744L288.798 143.681L288.833 143.647V141.545H271.239V144.267H284.426L277.643 150.157V152.328H279.984C282.257 152.328 283.978 152.638 285.08 153.223C286.182 153.809 286.732 154.601 286.732 155.635C286.732 156.668 286.182 157.495 285.08 158.08C283.944 158.7 282.36 159.01 280.329 159.01C278.676 159.01 277.092 158.804 275.646 158.425L275.233 158.321C274.131 158.046 272.478 157.633 271.377 157.081L271.205 156.978V159.975L271.273 160.009C272.237 160.457 273.339 160.836 274.579 161.112C276.404 161.525 278.332 161.732 280.329 161.732C284.77 161.732 289.969 160.113 289.969 155.566C289.934 150.467 283.496 149.813 281.981 149.744Z" fill="white"/>
    </g>
    <defs>
        <clipPath id="clip0_0_602">
            <rect width="607" height="237" fill="white"/>
        </clipPath>
    </defs>
</svg>
