<svg width="107" height="41" viewBox="0 0 107 41" fill="none" xmlns="http://www.w3.org/2000/svg">
    <path d="M19.6717 40.25C18.5804 40.25 17.4891 40.1596 16.3724 39.966C11.1949 39.0751 6.67728 36.1831 3.6317 31.8322C0.586131 27.4812 -0.59403 22.1749 0.281572 16.9073C1.15717 11.6397 3.99971 7.0435 8.2762 3.94492C12.5527 0.846331 17.7682 -0.354369 22.9457 0.536474C28.1232 1.42732 32.6408 4.31933 35.6864 8.67026C38.7319 13.0212 39.9121 18.3275 39.0365 23.5951C37.4249 33.3427 29.0876 40.25 19.6717 40.25ZM19.659 0.65267C10.4335 0.65267 2.2612 7.43082 0.67496 16.9848C-0.187953 22.1491 0.979516 27.3392 3.96164 31.6127C6.94376 35.8862 11.3725 38.7136 16.4485 39.5915C21.5244 40.4695 26.6258 39.2817 30.8261 36.2477C35.0265 33.2136 37.8056 28.7078 38.6685 23.5435C39.5314 18.3792 38.3639 13.189 35.3818 8.91556C32.3997 4.6421 27.9709 1.81464 22.895 0.936706C21.8036 0.743045 20.725 0.65267 19.659 0.65267Z" fill="#E81A3D"/>
    <path d="M17.9966 38.2361C17.0448 38.2361 16.1058 38.1586 15.2175 38.0037C11.2075 37.3195 7.45125 34.2467 4.90059 29.573C2.5022 25.1833 1.4997 20.0061 2.21033 15.7197C2.88289 11.6399 5.90309 7.81835 10.4968 5.22328C14.8114 2.78315 19.9 1.7632 24.1131 2.4862C28.1231 3.17047 31.8793 6.24324 34.43 10.9169C36.8284 15.3066 37.8309 20.4838 37.1202 24.7702C36.4477 28.85 33.4275 32.6716 28.8337 35.2666C25.4455 37.2033 21.5624 38.2361 17.9966 38.2361ZM15.3317 37.3711C19.4051 38.0683 24.3415 37.0742 28.5292 34.7115C32.9452 32.2068 35.8385 28.553 36.4857 24.6798C37.171 20.5355 36.1939 15.5132 33.8716 11.2526C31.4098 6.75967 27.8185 3.81601 24.0116 3.15756C19.9381 2.46038 15.0017 3.45451 10.8141 5.81718C6.39799 8.32187 3.5047 11.9756 2.85751 15.8488C2.17226 19.9932 3.14938 25.0155 5.47163 29.276C7.92078 33.7561 11.5247 36.7126 15.3317 37.3711Z" fill="#D41F5E"/>
    <path d="M16.3345 36.2343C15.5224 36.2343 14.7483 36.1827 14.063 36.0536C11.0682 35.5372 8.18761 32.3482 6.15722 27.3001C4.38064 22.8846 3.58118 17.8752 4.13953 14.5572C4.64713 11.5102 7.78153 8.57948 12.7433 6.51376C17.0832 4.70625 22.0069 3.89287 25.2809 4.46095C28.2757 4.97738 31.1563 8.16634 33.1867 13.2144C34.9633 17.6299 35.7627 22.6393 35.2044 25.9574C34.6968 29.0043 31.5624 31.9351 26.6006 34.0008C23.1744 35.4339 19.3928 36.2343 16.3345 36.2343ZM23.0348 5.19686C20.1034 5.19686 16.3726 5.98442 13.0859 7.35296C8.42871 9.30249 5.48466 11.975 5.04051 14.7121C4.52023 17.8236 5.307 22.7555 7.00745 26.9644C8.92362 31.7027 11.5504 34.698 14.2407 35.1498C17.3116 35.6792 22.1465 34.8787 26.2834 33.1487C30.9406 31.1992 33.8846 28.5266 34.3288 25.7895C34.8491 22.678 34.0623 17.7461 32.3618 13.5372C30.4457 8.79896 27.8189 5.80367 25.1286 5.35179C24.4814 5.2485 23.7835 5.19686 23.0348 5.19686Z" fill="#BE2580"/>
    <path d="M14.6208 34.2207C13.9609 34.2207 13.3772 34.182 12.9077 34.1045C7.98398 33.2524 5.39525 17.398 6.05512 13.3827C6.89265 8.37333 22.4758 5.73953 26.4224 6.41089C29.2522 6.9015 31.0923 12.324 31.9298 15.513C33.0719 19.851 33.6429 24.8475 33.2749 27.1198C32.7927 29.9989 27.463 31.8709 24.3286 32.723C20.9404 33.6526 17.1588 34.2207 14.6208 34.2207ZM24.5443 7.45666C18.9988 7.45666 7.74287 10.2712 7.19721 13.5764C6.44851 18.108 9.45601 32.3099 13.098 32.9425C15.1918 33.304 19.8871 32.723 24.024 31.5998C28.8335 30.2829 31.8664 28.5399 32.1328 26.939C32.4882 24.8087 31.9171 20.0317 30.8131 15.8228C29.5187 10.9297 27.8056 7.84399 26.232 7.57286C25.7625 7.49539 25.1915 7.45666 24.5443 7.45666Z" fill="#AB299E"/>
    <path d="M12.9716 32.2068C12.426 32.2068 12.0072 32.181 11.7534 32.1422C11.1316 32.0389 9.83722 31.8066 8.64437 22.6399C8.08602 18.3148 7.78146 13.4474 7.9845 12.1951C8.08602 11.5625 8.31444 10.2456 17.3243 9.03196C21.5754 8.46388 26.3595 8.15402 27.5904 8.3606C28.2122 8.46388 29.5066 8.69628 30.6994 17.8629C31.2578 22.188 31.5623 27.0554 31.3593 28.3077C31.2578 28.9404 31.0293 30.2573 22.0195 31.4709C18.6694 31.9098 14.9766 32.2068 12.9716 32.2068ZM12.0326 30.735C13.0478 30.877 17.21 30.6446 21.4104 30.1023C27.5269 29.3148 29.6588 28.411 29.9634 28.0237C30.103 26.9908 29.8746 22.7561 29.3416 18.4826C28.5675 12.2596 27.6792 10.0906 27.2985 9.78078C26.2833 9.63876 22.121 9.87116 17.9207 10.4134C11.8042 11.201 9.67225 12.1047 9.3677 12.492C9.22811 13.5249 9.45652 17.7596 9.9895 22.0331C10.7636 28.2561 11.6519 30.4251 12.0326 30.735Z" fill="#8134E1"/>
    <path d="M19.6588 28.0493C15.4331 28.0493 11.9941 24.5505 11.9941 20.2512C11.9941 15.9519 15.4331 12.4531 19.6588 12.4531C23.8846 12.4531 27.3235 15.9519 27.3235 20.2512C27.3362 24.5505 23.8973 28.0493 19.6588 28.0493ZM19.6588 14.8545C16.7275 14.8545 14.3545 17.2818 14.3545 20.2512C14.3545 23.2336 16.7402 25.6479 19.6588 25.6479C22.5902 25.6479 24.9632 23.2207 24.9632 20.2512C24.9759 17.2818 22.5902 14.8545 19.6588 14.8545Z" fill="#E81A3D"/>
    <path d="M48.6304 34.8017C48.6304 34.8017 51.1557 33.4074 51.8028 32.9942C52.6531 32.4778 53.7698 31.7548 53.7698 30.7994C53.7698 29.8698 53.0211 29.3017 51.8155 29.3017C50.6227 29.3017 49.6075 29.9085 48.8334 30.5541V29.3405C49.5314 28.7466 50.4831 28.1914 51.917 28.1914C53.7444 28.1914 54.9626 29.1855 54.9626 30.6445C54.9626 32.0517 53.7698 32.9297 52.6404 33.5494L50.7369 34.6081H55.356V35.7184H48.6304V34.8017Z" fill="#8134E1"/>
    <path d="M65.0006 32.0644C65.0006 34.1431 63.4397 35.9118 61.0921 35.9118C58.7571 35.9118 57.1836 34.1431 57.1836 32.0644C57.1836 29.9858 58.7571 28.2041 61.0921 28.2041C63.4397 28.2041 65.0006 29.9858 65.0006 32.0644ZM63.795 32.0644C63.795 30.4893 62.6529 29.2757 61.0921 29.2757C59.5312 29.2757 58.3891 30.4893 58.3891 32.0644C58.3891 33.6266 59.5312 34.8402 61.0921 34.8402C62.6529 34.8402 63.795 33.6266 63.795 32.0644Z" fill="#8134E1"/>
    <path d="M66.8149 34.8017C66.8149 34.8017 69.3402 33.4074 69.9874 32.9942C70.8376 32.4778 71.9543 31.7548 71.9543 30.7994C71.9543 29.8698 71.2056 29.3017 70.0001 29.3017C68.8073 29.3017 67.7921 29.9085 67.018 30.5541V29.3405C67.7159 28.7466 68.6677 28.1914 70.1016 28.1914C71.929 28.1914 73.1472 29.1855 73.1472 30.6445C73.1472 32.0517 71.9543 32.9297 70.8249 33.5494L68.9215 34.6081H73.5406V35.7184H66.8149V34.8017Z" fill="#8134E1"/>
    <path d="M56.0285 6.83798V14.2229H54.8484V13.0868C54.3154 13.8227 53.3763 14.4166 52.082 14.4166C49.9247 14.4166 48.4653 12.6349 48.4653 10.5434C48.4653 8.43891 49.9374 6.65723 52.082 6.65723C53.389 6.65723 54.3154 7.26403 54.8484 7.98704V6.85089H56.0285V6.83798ZM54.8484 9.32976C54.4423 8.41309 53.4905 7.72882 52.3738 7.72882C50.8003 7.72882 49.6582 8.94243 49.6582 10.5305C49.6582 12.0927 50.8003 13.3192 52.3738 13.3192C53.4652 13.3192 54.4296 12.622 54.8484 11.7182V9.32976Z" fill="#8134E1"/>
    <path d="M58.5029 6.83798H59.6958V8.21943C60.3049 7.19948 61.4597 6.65723 62.551 6.65723V7.87084C61.3328 7.92248 60.2034 8.49056 59.6958 9.58797V14.2229H58.5029V6.83798Z" fill="#8134E1"/>
    <path d="M64.0483 12.1568V4.604H65.2412V6.83757H67.7284V7.88334H65.2412V11.7953C65.2412 12.8927 65.5965 13.2929 66.4721 13.2929C66.9797 13.2929 67.3858 13.1509 67.6396 12.9831V14.0676C67.335 14.2613 66.6878 14.4033 66.1295 14.4033C64.7082 14.4033 64.0483 13.4737 64.0483 12.1568Z" fill="#8134E1"/>
    <path d="M48.77 17.5023H50.8765V18.4318C51.3207 17.825 52.1075 17.3086 53.148 17.3086C54.3282 17.3086 55.1657 17.9541 55.4703 18.5997C55.9525 17.9025 56.9042 17.3086 58.0463 17.3086C59.5945 17.3086 60.7112 18.3027 60.7112 20.3555V25.1067H58.6047V20.8461C58.6047 19.4905 57.8814 19.2839 57.3611 19.2839C56.7012 19.2839 56.0794 19.7616 55.8002 20.3168V25.1196H53.6937V20.8591C53.6937 19.5163 52.9704 19.2969 52.4501 19.2969C51.8029 19.2969 51.1684 19.7487 50.8765 20.3039V25.1325H48.77V17.5023Z" fill="#8134E1"/>
    <path d="M62.2593 21.298C62.2593 19.0774 63.7059 17.3086 65.7744 17.3086C67.0307 17.3086 67.8048 17.8896 68.2235 18.4318V17.5023H70.3301V25.1067H68.2235V24.1771C67.8048 24.7452 67.0307 25.3004 65.7744 25.3004C63.7186 25.3004 62.2593 23.5316 62.2593 21.298ZM68.2362 22.2792V20.3039C67.919 19.71 67.2464 19.1807 66.3835 19.1807C65.2033 19.1807 64.3658 20.1102 64.3658 21.298C64.3658 22.4987 65.2033 23.4283 66.3835 23.4283C67.2464 23.4283 67.919 22.899 68.2362 22.2792Z" fill="#8134E1"/>
    <path d="M72.1577 24.5903V22.6924C72.6907 23.0539 73.8582 23.5574 75.216 23.5574C76.0408 23.5574 76.4977 23.325 76.4977 22.9119C76.4977 22.3825 75.6728 22.3051 74.5815 21.9952C72.9953 21.5691 72.1577 21.0527 72.1577 19.6325C72.1577 18.1865 73.3886 17.3086 75.4444 17.3086C76.4596 17.3086 77.5763 17.5797 78.2489 18.0058V19.8391C77.5763 19.4389 76.5611 19.0515 75.5332 19.0515C74.7084 19.0515 74.3404 19.2969 74.3404 19.6584C74.3404 20.2006 75.254 20.3039 76.1931 20.5234C77.7159 20.8849 78.6296 21.5433 78.6296 22.9248C78.6296 24.3321 77.3225 25.3004 75.2921 25.3004C74.0231 25.3004 72.8303 25.0163 72.1577 24.5903Z" fill="#8134E1"/>
    <path d="M80.1899 15.4233H82.2965V17.5149H84.4157V19.3095H82.2965V22.3306C82.2965 23.0923 82.6137 23.4022 83.3117 23.4022C83.7177 23.4022 84.073 23.2989 84.403 23.1311V24.9128C83.9969 25.171 83.2482 25.3259 82.6264 25.3259C80.9386 25.3259 80.1899 24.3576 80.1899 22.7696V15.4233Z" fill="#8134E1"/>
    <path d="M85.5581 21.298C85.5581 19.0903 87.0809 17.3086 89.4539 17.3086C91.7127 17.3086 93.0198 19.1677 93.0198 21.3238V21.8919H87.6646C87.893 22.9764 88.8955 23.4799 90.1645 23.4799C91.0655 23.4799 91.8904 23.2088 92.5629 22.8086V24.5257C91.9538 25.0034 90.8752 25.3004 89.7204 25.3004C87.4362 25.3004 85.5581 23.7769 85.5581 21.298ZM90.9259 20.5234C90.9005 19.7358 90.3295 18.9999 89.3524 18.9999C88.3626 18.9999 87.7408 19.6584 87.6519 20.5234H90.9259Z" fill="#8134E1"/>
    <path d="M94.5552 17.5023H96.6617V18.7804C97.0678 18.0316 98.0957 17.3086 99.2631 17.3086C99.3393 17.3086 99.4154 17.3086 99.5042 17.3215V19.426C99.3012 19.3614 99.0728 19.3485 98.8444 19.3485C97.7403 19.3485 96.9282 20.0586 96.6617 20.6783V25.1067H94.5552V17.5023Z" fill="#8134E1"/>
    <path d="M100.456 24.5903V22.6924C100.989 23.0539 102.157 23.5574 103.514 23.5574C104.339 23.5574 104.796 23.325 104.796 22.9119C104.796 22.3825 103.971 22.3051 102.88 21.9952C101.294 21.5691 100.456 21.0527 100.456 19.6325C100.456 18.1865 101.687 17.3086 103.743 17.3086C104.758 17.3086 105.875 17.5797 106.547 18.0058V19.8391C105.875 19.4389 104.859 19.0515 103.844 19.0515C103.019 19.0515 102.651 19.2969 102.651 19.6584C102.651 20.2006 103.565 20.3039 104.504 20.5234C106.027 20.8849 106.941 21.5433 106.941 22.9248C106.941 24.3321 105.634 25.3004 103.603 25.3004C102.334 25.3004 101.129 25.0163 100.456 24.5903Z" fill="#8134E1"/>
    <path d="M79.6697 31.4707L82.1823 29.1984L82.195 29.1855V28.3979H75.7104V29.4179H80.5707L78.0708 31.6256V32.439H78.9337C79.7712 32.439 80.4057 32.5552 80.8118 32.7747C81.2179 32.9942 81.4209 33.2911 81.4209 33.6785C81.4209 34.0658 81.2179 34.3756 80.8118 34.5951C80.393 34.8275 79.8093 34.9437 79.0606 34.9437C78.4515 34.9437 77.8677 34.8662 77.3347 34.7242L77.1825 34.6855C76.7764 34.5822 76.1673 34.4273 75.7612 34.2207L75.6978 34.182V35.3052L75.7231 35.3181C76.0785 35.486 76.4845 35.628 76.9414 35.7313C77.6139 35.8862 78.3246 35.9637 79.0606 35.9637C80.6976 35.9637 82.6137 35.3569 82.6137 33.6526C82.6011 31.7418 80.228 31.4965 79.6697 31.4707Z" fill="#8134E1"/>
</svg>
