<svg width="24" height="13" viewBox="0 0 24 13" fill="none" xmlns="http://www.w3.org/2000/svg">
    <path d="M0 6.5C0 2.90727 2.90727 0 6.5 0H18.9091C21.5209 0 23.6364 2.11545 23.6364 4.72727C23.6364 7.33909 21.5209 9.45455 18.9091 9.45455H8.86364C7.23273 9.45455 5.90909 8.13091 5.90909 6.5C5.90909 4.86909 7.23273 3.54545 8.86364 3.54545H17.7273V5.90909H8.75727C8.10727 5.90909 8.10727 7.09091 8.75727 7.09091H18.9091C20.2091 7.09091 21.2727 6.02727 21.2727 4.72727C21.2727 3.42727 20.2091 2.36364 18.9091 2.36364H6.5C4.21909 2.36364 2.36364 4.21909 2.36364 6.5C2.36364 8.78091 4.21909 10.6364 6.5 10.6364H17.7273V13H6.5C2.90727 13 0 10.0927 0 6.5Z" fill="#373F4B"/>
</svg>
