<svg width="1532" height="743" viewBox="0 0 1532 743" fill="none" xmlns="http://www.w3.org/2000/svg">
    <g clip-path="url(#clip0_0_547)">
        <path d="M1470.48 295.14L1286.45 222.851L1214.1 406.732L1398.13 479.022L1470.48 295.14ZM1217.97 405.057L1288.12 226.716L1466.61 296.816L1396.46 475.156L1217.97 405.057ZM1458.1 302.099C1457.59 300.681 1457.59 300.681 1444.04 295.012C1437.47 292.177 1428.18 288.44 1416.7 283.543C1396.97 275.425 1376.98 267.178 1376.47 266.92C1375.95 266.791 1355.96 258.673 1336.1 250.813C1324.49 246.174 1315.21 242.566 1308.5 239.989C1294.83 234.706 1294.83 234.706 1293.41 235.221C1291.99 235.736 1291.99 235.736 1286.32 249.267C1283.48 255.838 1279.74 265.116 1274.84 276.585C1266.71 296.171 1258.46 316.273 1258.2 316.789C1258.07 317.304 1249.95 337.406 1242.08 357.122C1237.44 368.719 1233.83 377.997 1231.25 384.697C1225.96 398.356 1225.96 398.356 1226.48 399.774C1226.99 401.191 1226.99 401.191 1240.53 406.861C1247.11 409.696 1256.4 413.433 1267.88 418.329C1287.48 426.448 1307.6 434.695 1308.11 434.952C1308.63 435.21 1328.75 443.199 1348.48 451.06C1360.09 455.699 1369.37 459.307 1376.08 461.884C1389.75 467.167 1389.75 467.167 1391.17 466.652C1392.59 466.136 1392.59 466.136 1398.26 452.606C1401.1 446.034 1404.84 436.756 1409.74 425.288C1417.86 405.701 1426.12 385.599 1426.38 385.084C1426.5 384.568 1434.63 364.466 1442.5 344.751C1447.14 333.154 1450.75 323.876 1453.33 317.175C1458.75 303.516 1458.75 303.516 1458.1 302.099ZM1439.66 343.591C1431.79 363.307 1423.67 383.538 1423.54 383.924C1423.41 384.44 1415.16 404.413 1406.9 424.128C1402.13 435.597 1398.26 444.874 1395.55 451.446C1392.2 459.307 1390.52 463.301 1390.01 463.945C1389.1 463.817 1385.11 462.27 1377.24 459.178C1370.53 456.601 1361.25 452.864 1349.77 448.354C1330.04 440.493 1309.79 432.375 1309.4 432.246C1308.89 432.117 1288.9 423.87 1269.17 415.623C1257.69 410.856 1248.4 406.99 1241.82 404.284C1233.96 400.934 1229.96 399.258 1229.31 398.743C1229.44 397.841 1231.12 393.46 1234.09 385.986C1236.67 379.285 1240.41 370.007 1244.92 358.539C1252.79 338.824 1260.91 318.593 1261.04 318.206C1261.17 317.691 1269.55 297.589 1277.68 278.002C1282.45 266.534 1286.32 257.256 1289.03 250.684C1292.25 243.21 1294.06 238.958 1294.57 238.185C1295.47 238.314 1299.47 239.86 1307.34 242.953C1314.05 245.53 1323.33 249.267 1334.81 253.777C1354.67 261.637 1374.79 269.755 1375.18 269.884C1375.69 270.013 1395.68 278.26 1415.41 286.507C1426.89 291.275 1436.18 295.14 1442.75 297.846C1450.62 301.197 1454.62 302.872 1455.26 303.387C1455.14 304.289 1453.59 308.284 1450.49 316.144C1448.04 322.845 1444.3 331.994 1439.66 343.591ZM1443.4 320.526C1448.04 308.026 1447.91 307.769 1447.4 306.48C1446.88 305.191 1446.75 304.934 1434.5 299.522C1428.57 296.944 1420.31 293.336 1410 289.084C1392.2 281.61 1374.4 274.136 1373.5 273.879C1372.6 273.492 1354.67 266.405 1336.61 259.447C1326.17 255.452 1317.79 252.23 1311.72 250.04C1299.21 245.401 1298.96 245.53 1297.67 246.045C1296.38 246.561 1296.12 246.689 1290.7 258.931C1288.12 264.859 1284.51 273.106 1280.26 283.414C1272.78 301.197 1265.3 318.979 1265.04 319.881C1264.65 320.783 1257.56 338.695 1250.59 356.735C1246.6 367.172 1243.37 375.548 1241.18 381.605C1236.54 394.104 1236.67 394.362 1237.18 395.65C1237.7 396.939 1237.83 397.197 1250.08 402.609C1256.01 405.186 1264.26 408.794 1274.58 413.046C1292.38 420.52 1310.18 427.994 1311.08 428.252C1311.98 428.638 1329.91 435.725 1347.96 442.684C1358.41 446.678 1366.66 449.9 1372.85 452.09C1385.36 456.729 1385.62 456.601 1386.91 456.085C1388.2 455.57 1388.46 455.441 1393.88 443.199C1396.58 437.143 1400.07 429.025 1404.32 418.716C1411.8 400.934 1419.28 383.151 1419.54 382.249C1419.93 381.347 1427.02 363.436 1433.99 345.395C1437.98 335.087 1441.08 326.711 1443.4 320.526ZM1416.83 381.089C1416.45 381.991 1409.09 399.774 1401.61 417.556C1397.36 427.736 1393.75 435.983 1391.17 441.911C1388.72 447.452 1386.4 452.606 1385.75 453.25C1384.98 453.25 1379.56 451.317 1373.89 449.256C1367.82 447.065 1359.44 443.843 1349 439.849C1330.94 432.89 1313.01 425.803 1312.24 425.546C1311.47 425.159 1293.54 417.814 1275.74 410.34C1265.55 405.959 1257.3 402.48 1251.37 399.903C1245.82 397.454 1240.66 395.135 1240.02 394.491C1240.02 393.717 1241.95 388.305 1244.02 382.636C1246.21 376.579 1249.43 368.203 1253.43 357.766C1260.4 339.854 1267.49 321.814 1267.75 321.041C1268.13 320.139 1275.48 302.357 1282.96 284.574C1287.35 274.265 1290.83 266.147 1293.41 260.22C1295.86 254.679 1298.18 249.524 1298.83 248.88C1299.6 248.88 1305.02 250.813 1310.69 252.875C1316.75 255.065 1325.14 258.287 1335.58 262.281C1353.51 269.24 1371.56 276.327 1372.34 276.585C1373.24 276.971 1391.04 284.316 1408.84 291.79C1419.15 296.171 1427.28 299.65 1433.21 302.228C1438.76 304.676 1443.92 306.995 1444.56 307.64C1444.56 308.413 1442.63 313.825 1440.56 319.495C1438.24 325.68 1435.15 333.927 1431.15 344.364C1424.18 362.276 1417.09 380.187 1416.83 381.089ZM1437.21 312.407C1436.56 310.99 1436.18 309.959 1404.32 295.527C1388.85 288.569 1373.11 281.61 1371.82 281.095C1370.53 280.579 1354.54 274.136 1338.81 267.951C1306.18 255.194 1305.15 255.581 1303.73 256.225C1302.31 256.869 1301.28 257.256 1286.83 289.084C1279.87 304.547 1272.91 320.268 1272.39 321.556C1271.87 322.845 1265.43 338.824 1259.23 354.544C1246.47 387.146 1246.85 388.176 1247.5 389.594C1248.14 391.011 1248.53 392.042 1280.39 406.474C1295.86 413.433 1311.6 420.391 1312.88 420.907C1314.17 421.422 1330.17 427.865 1345.9 434.05C1378.53 446.807 1379.56 446.421 1380.98 445.776C1382.4 445.132 1383.43 444.746 1397.87 412.917C1404.84 397.454 1411.8 381.734 1412.32 380.445C1412.83 379.156 1419.28 363.178 1425.47 347.457C1438.24 314.856 1437.85 313.954 1437.21 312.407ZM1409.61 379.414C1409.09 380.703 1402.13 396.423 1395.17 411.887C1391.81 419.36 1381.5 441.911 1379.82 443.199C1377.76 443.457 1354.54 434.437 1346.93 431.473C1331.07 425.288 1315.21 418.845 1313.92 418.329C1312.63 417.814 1296.89 410.856 1281.42 403.897C1273.94 400.547 1251.37 390.238 1250.08 388.563C1249.82 386.501 1258.85 363.307 1261.81 355.704C1268 339.854 1274.45 324.005 1274.97 322.716C1275.48 321.428 1282.45 305.707 1289.41 290.244C1292.77 282.77 1303.08 260.22 1304.76 258.931C1306.82 258.673 1330.04 267.693 1337.65 270.657C1353.51 276.842 1369.37 283.285 1370.66 283.801C1371.95 284.316 1387.69 291.275 1403.16 298.233C1410.64 301.583 1433.21 311.892 1434.5 313.567C1434.76 315.629 1425.73 338.824 1422.76 346.426C1416.57 362.147 1410.13 377.997 1409.61 379.414ZM1427.15 318.077C1426.63 316.66 1425.99 315.242 1398.65 301.841C1385.36 295.398 1371.69 288.955 1370.02 288.182C1368.34 287.409 1354.41 281.61 1340.61 276.198C1312.24 264.987 1310.82 265.503 1309.4 266.147C1307.98 266.663 1306.57 267.307 1293.15 294.625C1286.7 307.897 1280.26 321.556 1279.48 323.232C1278.71 324.907 1272.91 338.824 1267.49 352.611C1256.27 380.96 1256.78 382.378 1257.43 383.795C1257.94 385.213 1258.59 386.63 1285.93 400.031C1299.21 406.474 1312.88 412.917 1314.56 413.691C1316.24 414.464 1330.17 420.262 1343.97 425.674C1372.34 436.885 1373.76 436.37 1375.18 435.725C1376.59 435.21 1378.01 434.566 1391.43 407.248C1397.87 393.975 1404.32 380.316 1405.1 378.641C1405.87 376.966 1411.67 363.049 1417.09 349.261C1428.18 321.041 1427.67 319.624 1427.15 318.077ZM1402.39 377.481C1401.61 379.156 1395.29 392.687 1388.85 405.959C1380.21 423.484 1375.31 432.504 1374.14 433.019C1372.98 433.535 1363.18 430.056 1345 422.968C1331.33 417.556 1317.4 411.758 1315.72 411.113C1314.05 410.34 1300.5 404.026 1287.22 397.583C1269.68 388.95 1260.65 384.053 1260.14 382.893C1259.62 381.734 1263.1 371.94 1270.2 353.771C1275.61 340.112 1281.42 326.195 1282.06 324.52C1282.84 322.845 1289.15 309.315 1295.6 296.042C1304.24 278.518 1309.14 269.497 1310.31 268.982C1311.47 268.467 1321.27 271.946 1339.45 279.033C1353.12 284.445 1367.05 290.244 1368.73 290.888C1370.4 291.661 1384.07 297.975 1397.23 304.418C1414.77 313.052 1423.8 317.948 1424.31 319.108C1424.83 320.268 1421.35 330.061 1414.25 348.23C1408.84 361.889 1403.16 375.806 1402.39 377.481ZM1392.97 308.284C1381.62 302.228 1370.15 296.3 1368.34 295.527C1366.54 294.754 1354.67 289.599 1342.68 284.832C1318.56 275.167 1316.75 275.812 1315.21 276.327C1313.79 276.842 1311.98 277.487 1299.6 300.424C1293.54 311.634 1287.61 323.232 1286.83 325.036C1286.06 326.84 1280.9 338.695 1276.13 350.679C1266.46 374.775 1267.1 376.579 1267.62 378.125C1268.13 379.543 1268.78 381.347 1291.73 393.717C1303.08 399.774 1314.56 405.701 1316.37 406.474C1318.17 407.248 1330.04 412.402 1342.03 417.17C1366.15 426.834 1367.95 426.19 1369.5 425.674C1370.92 425.159 1372.73 424.515 1385.11 401.578C1391.17 390.367 1397.1 378.77 1397.87 376.966C1398.78 375.162 1403.81 363.307 1408.58 351.323C1418.25 327.226 1417.61 325.422 1417.09 323.876C1416.57 322.587 1415.93 320.783 1392.97 308.284ZM1405.74 350.292C1400.97 362.147 1395.94 374.002 1395.04 375.677C1394.26 377.481 1388.33 388.95 1382.27 400.16C1372.47 418.201 1369.24 422.453 1368.21 422.84C1367.18 423.226 1362.02 422.066 1342.93 414.335C1331.07 409.567 1319.2 404.542 1317.53 403.64C1315.72 402.866 1304.24 396.939 1293.02 390.883C1274.97 381.089 1270.71 377.868 1270.33 376.837C1269.94 375.806 1271.1 370.652 1278.84 351.581C1283.61 339.726 1288.64 327.871 1289.54 326.195C1290.32 324.391 1296.25 312.923 1302.31 301.712C1312.11 283.672 1315.34 279.42 1316.37 279.033C1317.4 278.646 1322.56 279.806 1341.64 287.538C1353.51 292.306 1365.37 297.331 1367.05 298.233C1368.86 299.006 1380.33 304.934 1391.55 310.99C1409.61 320.783 1413.87 324.005 1414.25 325.036C1414.64 325.938 1413.48 331.221 1405.74 350.292ZM1387.69 315.242C1378.92 309.83 1369.37 304.289 1367.05 303.13C1364.73 301.97 1354.67 297.331 1345.26 293.336C1325.27 284.961 1323.07 285.734 1321.65 286.12C1320.24 286.507 1318.04 287.28 1306.57 305.578C1301.15 314.34 1295.6 323.876 1294.44 326.195C1293.28 328.515 1288.64 338.566 1284.64 347.973C1276.26 367.946 1277.03 370.136 1277.42 371.554C1277.81 372.971 1278.58 375.162 1296.89 386.63C1305.66 392.042 1315.21 397.583 1317.53 398.743C1319.85 399.903 1329.91 404.542 1339.32 408.536C1359.31 416.912 1361.51 416.139 1362.92 415.752C1364.34 415.366 1366.54 414.593 1378.01 396.295C1383.43 387.532 1388.98 377.997 1390.14 375.677C1391.3 373.358 1395.94 363.307 1399.94 353.9C1408.32 333.927 1407.55 331.736 1407.16 330.319C1406.77 329.03 1406 326.711 1387.69 315.242ZM1397.23 352.869C1393.23 362.276 1388.72 372.198 1387.56 374.517C1386.4 376.837 1380.85 386.244 1375.43 394.877C1368.34 406.217 1363.7 412.531 1361.89 413.046C1360.22 413.562 1352.74 411.113 1340.35 405.959C1330.94 401.964 1321.01 397.454 1318.69 396.295C1316.37 395.135 1306.95 389.594 1298.31 384.182C1286.96 377.095 1280.64 372.456 1280.13 370.652C1279.61 368.977 1282.06 361.503 1287.22 349.132C1291.22 339.726 1295.73 329.803 1296.89 327.484C1298.05 325.165 1303.6 315.758 1309.02 307.124C1316.11 295.785 1320.75 289.471 1322.56 288.955C1324.23 288.44 1331.71 290.888 1344.09 296.042C1353.51 300.037 1363.44 304.547 1365.76 305.707C1368.08 306.867 1377.5 312.407 1386.14 317.82C1397.49 324.907 1403.81 329.546 1404.32 331.35C1404.97 333.025 1402.52 340.37 1397.23 352.869ZM1382.4 322.201C1375.43 317.046 1368.21 312.15 1365.76 310.732C1363.31 309.315 1355.57 305.449 1347.58 301.97C1331.71 295.012 1329.01 295.785 1327.72 296.042C1326.56 296.3 1323.72 297.073 1313.4 310.99C1308.24 317.948 1303.34 325.165 1301.92 327.613C1300.5 330.061 1296.64 337.793 1293.15 345.782C1286.19 361.632 1286.96 364.338 1287.22 365.626C1287.48 366.786 1288.25 369.621 1302.18 379.93C1309.14 385.084 1316.37 389.981 1318.82 391.398C1321.27 392.815 1329.01 396.681 1337 400.16C1352.86 407.119 1355.57 406.346 1356.86 406.088C1358.02 405.83 1360.86 405.057 1371.18 391.14C1376.34 384.182 1381.24 376.966 1382.66 374.517C1384.07 372.069 1387.94 364.338 1391.43 356.348C1398.39 340.499 1397.62 337.793 1397.36 336.504C1396.97 335.344 1396.2 332.509 1382.4 322.201ZM1388.72 355.189C1385.24 362.92 1381.37 370.652 1380.08 372.971C1378.66 375.291 1373.89 382.507 1368.86 389.336C1362.54 397.712 1358.02 402.609 1356.09 403.124C1354.15 403.64 1347.83 401.578 1338.16 397.325C1330.42 393.846 1322.69 389.981 1320.37 388.692C1318.04 387.274 1310.82 382.507 1303.99 377.481C1295.6 371.167 1290.7 366.657 1290.19 364.724C1289.67 362.791 1291.73 356.477 1295.99 346.813C1299.47 339.081 1303.34 331.35 1304.63 329.03C1306.05 326.711 1310.82 319.495 1315.85 312.665C1322.17 304.289 1326.68 299.393 1328.62 298.877C1330.55 298.362 1336.87 300.424 1346.55 304.676C1354.28 308.155 1362.02 312.021 1364.34 313.31C1366.66 314.727 1373.89 319.495 1380.72 324.52C1389.1 330.834 1394.01 335.344 1394.52 337.277C1394.91 339.21 1392.84 345.524 1388.72 355.189ZM1363.44 317.948C1360.22 315.887 1339.32 304.805 1332.49 306.222C1325.65 307.769 1311.21 326.582 1309.27 329.675C1307.21 332.896 1296.12 353.771 1297.54 360.601C1299.09 367.43 1317.91 381.862 1321.01 383.795C1324.23 385.857 1345.13 396.939 1351.96 395.521C1358.8 393.975 1373.24 375.162 1375.18 372.069C1377.24 368.848 1388.33 347.973 1386.91 341.143C1385.49 334.313 1366.66 320.01 1363.44 317.948ZM1372.85 370.523C1369.63 375.548 1356.35 391.656 1351.45 392.687C1346.55 393.717 1327.85 384.697 1322.69 381.347C1317.66 378.125 1301.54 364.853 1300.5 359.956C1299.47 355.06 1308.5 336.375 1311.85 331.221C1315.08 326.195 1328.36 310.088 1333.26 309.057C1338.16 308.026 1356.86 317.046 1362.02 320.397C1367.05 323.618 1383.17 336.891 1384.2 341.787C1385.24 346.813 1376.08 365.497 1372.85 370.523ZM1363.57 327.226C1359.06 323.103 1347.06 315.758 1340.35 316.016C1333.65 316.402 1322.56 325.036 1318.43 329.546C1314.3 334.056 1306.95 346.04 1307.21 352.74C1307.6 359.441 1316.24 370.523 1320.75 374.646C1325.27 378.77 1337.26 386.115 1343.97 385.857C1350.67 385.47 1361.76 376.837 1365.89 372.327C1370.02 367.817 1377.5 355.833 1377.11 349.132C1376.72 342.432 1368.21 331.35 1363.57 327.226ZM1363.83 370.265C1359.96 374.517 1349.51 382.507 1343.97 382.893C1338.42 383.151 1327.2 376.321 1322.94 372.456C1318.69 368.59 1310.69 358.152 1310.31 352.611C1310.05 347.071 1316.88 335.86 1320.75 331.607C1324.62 327.355 1335.07 319.366 1340.61 318.979C1346.16 318.722 1357.38 325.551 1361.63 329.417C1365.89 333.283 1373.89 343.72 1374.27 349.261C1374.53 354.802 1367.7 366.013 1363.83 370.265ZM1362.54 337.02C1358.8 331.607 1353.25 327.999 1346.8 326.84C1340.35 325.68 1333.78 327.097 1328.36 330.834C1322.94 334.571 1319.33 340.112 1318.17 346.555C1317.01 352.998 1318.43 359.57 1322.17 364.982C1325.91 370.394 1331.46 374.002 1337.9 375.162C1344.35 376.321 1350.93 374.904 1356.35 371.167C1361.76 367.43 1365.37 361.889 1366.54 355.446C1367.7 349.003 1366.28 342.432 1362.54 337.02ZM1354.54 368.719C1349.77 371.94 1344.1 373.229 1338.42 372.198C1332.75 371.167 1327.85 367.946 1324.49 363.178C1321.27 358.41 1319.98 352.74 1321.01 347.071C1322.04 341.401 1325.27 336.504 1330.04 333.154C1334.81 329.932 1340.48 328.644 1346.16 329.675C1351.83 330.705 1356.73 333.927 1360.09 338.695C1363.31 343.462 1364.6 349.132 1363.57 354.802C1362.54 360.601 1359.31 365.497 1354.54 368.719Z" fill="#FF6800"/>
        <path d="M447.903 429.411H377.1H348.34H273.668H244.908H191.258H162.499L145.475 472.45H174.235H244.908H273.668H348.34H377.1H430.75H459.51L476.533 429.411H447.903Z" fill="#8134E1"/>
        <path d="M807.205 758.259L508.13 640.095C505.68 639.065 504.39 636.359 505.422 633.781L623.685 334.958C624.717 332.509 627.425 331.221 630.004 332.252L929.079 450.415C931.529 451.446 932.819 454.152 931.787 456.729L813.524 755.553C812.493 758.001 809.655 759.161 807.205 758.259Z" fill="#DC143C"/>
        <path d="M295.592 224.01C294.69 223.624 291.981 222.335 289.273 220.918C283.856 218.083 283.47 217.052 283.212 216.536C282.954 216.021 282.567 214.99 284.114 209.063C284.888 206.228 285.791 203.264 286.178 202.362C286.565 201.46 287.854 198.754 289.273 196.048C292.11 190.636 293.142 190.249 293.658 189.992C294.174 189.734 295.205 189.347 301.138 190.894C303.975 191.667 306.941 192.569 307.844 192.955C308.747 193.342 311.455 194.63 314.164 196.048C319.58 198.883 319.967 199.914 320.225 200.429C320.483 200.945 320.87 201.975 319.322 207.903C318.549 210.738 317.646 213.702 317.259 214.604C316.872 215.506 315.582 218.212 314.164 220.918C311.326 226.33 310.295 226.716 309.779 226.974C309.263 227.232 308.231 227.618 302.299 226.072C299.461 225.299 296.495 224.268 295.592 224.01ZM306.942 195.275C306.039 194.888 303.33 193.986 300.493 193.342C295.721 192.053 294.69 192.311 294.69 192.311C294.561 192.311 293.787 192.955 291.465 197.336C290.047 199.914 288.886 202.491 288.499 203.393C288.112 204.295 287.21 207.001 286.565 209.836C285.275 214.604 285.533 215.634 285.533 215.634C285.533 215.763 286.178 216.536 290.563 218.856C293.142 220.273 295.721 221.433 296.624 221.82C297.527 222.206 300.235 223.108 303.072 223.753C307.844 225.041 308.876 224.783 308.876 224.783C309.005 224.783 309.779 224.139 312.1 219.758C313.519 217.181 314.68 214.604 315.066 213.702C315.453 212.8 316.356 210.093 317.001 207.259C318.291 202.491 318.033 201.46 318.033 201.46C318.033 201.331 317.388 200.558 313.003 198.238C310.424 196.95 307.844 195.661 306.942 195.275Z" fill="url(#paint0_linear_0_547)"/>
        <path d="M296.753 231.484C294.561 230.582 292.11 229.422 289.66 227.876C281.793 222.979 277.279 216.923 276.634 214.346C275.989 211.511 278.44 202.62 282.309 196.435C286.178 190.249 293.013 184.193 295.85 183.42C298.688 182.775 307.586 185.224 313.777 189.09C319.838 192.826 326.158 199.785 326.802 202.62C327.318 204.681 326.544 211.769 321.128 220.531C315.84 229.036 309.908 232.902 307.715 233.417H307.586L307.199 233.546C305.265 233.804 301.396 233.288 296.753 231.484ZM306.555 188.316C302.041 186.512 297.785 185.739 296.495 185.997C294.69 186.384 288.241 191.796 284.501 197.852C280.761 204.037 278.698 212.026 279.214 213.83C279.6 215.248 283.083 220.789 291.079 225.814C298.946 230.711 305.394 231.484 307.07 231.098L307.457 230.969C309.263 230.324 314.422 226.716 319.064 219.243C324.094 211.124 324.739 204.681 324.352 203.264C323.965 201.46 318.549 195.017 312.487 191.28C310.682 189.992 308.489 189.09 306.555 188.316Z" fill="url(#paint1_linear_0_547)"/>
        <path d="M293.529 238.829C287.726 236.51 283.341 231.484 279.73 227.361C272.249 218.598 260.9 205.326 282.825 186.512C304.878 167.699 317.517 182.518 323.707 189.605C326.803 193.213 331.445 198.625 332.606 205.584C334.025 213.959 330.027 222.335 320.483 230.453C310.811 238.7 302.428 241.664 294.69 239.345C294.432 239.216 293.916 239.087 293.529 238.829ZM309.521 181.1C303.331 178.652 295.206 179.296 284.501 188.445C264.383 205.712 273.926 216.794 281.664 225.814C285.533 230.196 289.789 235.221 295.593 237.025C302.299 239.087 310.037 236.381 319.065 228.649C327.834 221.175 331.574 213.573 330.285 206.099C329.253 199.785 324.868 194.631 321.902 191.28C319.065 187.93 315.067 183.291 309.521 181.1Z" fill="url(#paint2_linear_0_547)"/>
        <path d="M285.92 241.406C280.89 239.473 276.763 236.252 273.539 231.871C268.123 224.526 266.704 215.377 266.446 210.738C266.059 204.939 266.575 196.434 270.831 188.832C276.118 179.296 285.791 174.142 299.59 173.24C313.132 172.467 323.449 176.719 330.156 186.126C335.959 194.373 336.991 203.651 337.12 206.357C337.249 209.063 337.378 218.341 332.606 227.232C327.189 237.412 317.517 242.953 303.975 243.726C297.011 244.241 291.079 243.339 285.92 241.406ZM315.84 177.879C311.197 176.075 305.91 175.302 299.719 175.688C286.823 176.461 277.795 181.229 272.894 189.992C268.767 197.465 268.509 206.099 268.767 210.48C269.025 214.99 270.315 223.495 275.345 230.324C281.277 238.314 290.821 242.051 303.588 241.277C316.227 240.504 325.255 235.35 330.285 226.072C334.927 217.567 334.541 208.29 334.412 206.485C334.283 204.037 333.38 195.275 327.963 187.543C324.997 183.033 320.87 179.812 315.84 177.879Z" fill="url(#paint3_linear_0_547)"/>
        <path d="M286.178 247.849C264.64 239.344 254.065 214.99 262.577 193.471C271.089 171.951 295.463 161.385 317.001 169.89C338.538 178.394 349.114 202.749 340.602 224.268C332.09 245.787 307.715 256.225 286.178 247.849ZM316.098 172.209C295.85 164.22 272.894 174.142 264.898 194.373C256.902 214.604 266.833 237.54 287.081 245.53C307.328 253.519 330.285 243.597 338.28 223.366C346.276 203.135 336.346 180.198 316.098 172.209Z" fill="url(#paint4_linear_0_547)"/>
        <path d="M283.856 253.519C259.224 243.726 247.101 215.763 256.773 191.151C266.575 166.539 294.561 154.427 319.193 164.091C343.826 173.884 355.949 201.847 346.277 226.459C336.604 251.199 308.618 263.312 283.856 253.519ZM318.42 166.41C295.077 157.133 268.509 168.601 259.224 192.053C249.938 215.377 261.416 241.922 284.888 251.199C308.231 260.477 334.798 249.009 344.084 225.557C353.241 202.233 341.763 175.688 318.42 166.41Z" fill="url(#paint5_linear_0_547)"/>
        <path d="M281.664 259.189C253.807 248.236 240.137 216.665 251.228 188.832C262.319 160.998 293.787 147.339 321.644 158.421C349.501 169.503 363.171 200.945 352.08 228.778C340.989 256.612 309.392 270.271 281.664 259.189ZM320.612 160.741C294.045 150.303 263.867 163.318 253.42 189.863C242.974 216.408 256 246.561 282.567 256.998C309.134 267.436 339.312 254.421 349.759 227.876C360.205 201.331 347.179 171.178 320.612 160.741Z" fill="url(#paint6_linear_0_547)"/>
        <path d="M279.343 264.987C248.391 252.746 233.172 217.567 245.424 186.641C257.676 155.715 292.884 140.51 323.836 152.751C354.788 164.993 370.007 200.171 357.755 231.098C345.503 262.024 310.295 277.229 279.343 264.987ZM322.934 154.942C293.271 143.216 259.482 157.777 247.746 187.543C236.01 217.181 250.583 250.942 280.374 262.668C310.037 274.394 343.826 259.833 355.562 230.067C367.298 200.429 352.596 166.668 322.934 154.942Z" fill="url(#paint7_linear_0_547)"/>
        <path d="M277.15 270.657C242.974 257.127 226.208 218.469 239.75 184.322C253.291 150.174 291.981 133.423 326.158 146.953C360.334 160.483 377.1 199.141 363.558 233.288C350.016 267.436 311.197 284.187 277.15 270.657ZM325.126 149.272C292.239 136.257 254.968 152.494 241.942 185.353C228.916 218.212 245.166 255.452 278.053 268.467C310.939 281.481 348.211 265.245 361.237 232.386C374.262 199.527 358.012 162.287 325.126 149.272Z" fill="url(#paint8_linear_0_547)"/>
        <path d="M274.829 276.456C237.557 261.766 219.244 219.371 233.946 182.131C248.649 144.891 291.079 126.593 328.35 141.283C365.622 155.973 384.064 198.367 369.233 235.608C354.531 272.848 312.1 291.146 274.829 276.456ZM327.448 143.474C291.466 129.17 250.454 146.953 236.268 182.904C221.952 218.856 239.75 259.833 275.732 274.008C311.714 288.311 352.725 270.528 366.911 234.577C381.098 198.625 363.429 157.777 327.448 143.474Z" fill="url(#paint9_linear_0_547)"/>
        <path d="M272.507 282.126C232.012 266.147 212.151 220.273 228.143 179.812C244.135 139.35 290.047 119.506 330.543 135.484C371.038 151.463 390.899 197.337 374.907 237.798C358.915 278.26 313.003 298.104 272.507 282.126ZM329.769 137.804C290.563 122.341 246.069 141.541 230.593 180.714C215.117 219.887 234.333 264.343 273.539 279.806C312.745 295.269 357.239 276.069 372.715 236.896C388.191 197.723 368.975 153.267 329.769 137.804Z" fill="url(#paint10_linear_0_547)"/>
        <path d="M993.175 369.363C1037.02 413.819 1108.86 414.335 1153.35 370.523C1197.85 326.711 1198.36 254.936 1154.51 210.48C1110.66 166.024 1038.83 165.508 994.336 209.32C949.971 253.132 949.326 324.907 993.175 369.363Z" fill="url(#paint11_linear_0_547)"/>
        <path d="M902.641 633.137L603.566 514.974C601.116 513.943 599.826 511.237 600.858 508.659L719.12 209.836C720.152 207.387 722.86 206.099 725.44 207.13L1024.51 325.293C1026.96 326.324 1028.25 329.03 1027.22 331.607L908.96 630.431C907.928 633.008 905.091 634.168 902.641 633.137Z" fill="#8134E1"/>
        <path d="M751.749 344.88C764.427 344.88 774.705 334.611 774.705 321.943C774.705 309.275 764.427 299.006 751.749 299.006C739.071 299.006 728.793 309.275 728.793 321.943C728.793 334.611 739.071 344.88 751.749 344.88Z" fill="#FF6800"/>
        <path d="M498.716 359.441L420.433 328.515C417.595 327.355 416.177 324.134 417.337 321.299L448.29 243.081C449.45 240.246 452.674 238.829 455.512 239.989L533.795 270.915C536.632 272.075 538.051 275.296 536.89 278.131L505.938 356.348C504.777 359.183 501.553 360.601 498.716 359.441Z" fill="#FF6800"/>
        <path d="M385.998 387.017L334.799 366.786C332.993 366.013 331.961 363.951 332.735 362.147L352.983 310.99C353.757 309.186 355.82 308.155 357.626 308.928L408.826 329.159C410.631 329.932 411.663 331.994 410.889 333.798L390.641 384.955C389.996 386.759 387.804 387.79 385.998 387.017Z" fill="#2F2FED"/>
        <path d="M934.624 259.962H821.133V279.291H934.624V259.962Z" fill="#DC143C"/>
        <path d="M644.964 279.291H872.462L823.584 259.962H652.573L644.964 279.291Z" fill="#8134E1"/>
        <path d="M828.742 364.338H710.093V383.666H828.742V364.338Z" fill="#DC143C"/>
        <path d="M828.871 364.338H752.007L744.269 383.666H828.871V364.338Z" fill="#2F2FED"/>
        <path d="M1415.93 151.592H1312.63L1302.31 177.621H1415.93V151.592Z" fill="#FF6800"/>
        <path d="M916.053 428.123L898.514 472.45H1054.56V428.123H916.053Z" fill="#DC143C"/>
        <path d="M1207.78 325.551H1264.52L1276.13 296.042H1207.78V325.551Z" fill="#2F2FED"/>
        <path d="M112.717 423.613H50.813V451.962H112.717V423.613Z" fill="#8134E1"/>
        <path d="M112.717 423.613H90.7929L79.5728 452.09H112.717V423.613Z" fill="#FF4F00"/>
        <path d="M568.229 315.371V305.062H491.365L487.238 315.371H568.229Z" fill="#8134E1"/>
        <path d="M461.057 152.236H446.226H392.576H363.816L346.792 195.404H375.423H446.226H461.057V152.236Z" fill="#8134E1"/>
        <path d="M366.137 195.404H380.969H434.619H463.379L480.402 152.236H451.772H380.969H366.137V195.404Z" fill="#8134E1"/>
        <path d="M375.165 175.688C368.975 173.24 362.784 171.694 356.465 170.921L355.175 174.271C361.495 175.044 367.685 176.59 373.876 178.91C383.548 182.776 392.06 188.445 399.024 195.404H403.925C396.058 186.899 386.385 180.07 375.165 175.688Z" fill="#FF6800"/>
        <path d="M353.112 179.296L351.822 182.647C358.142 183.162 364.461 184.579 370.651 187.028C376.068 189.218 380.969 191.924 385.483 195.275H391.157C385.612 190.507 379.163 186.641 371.941 183.806C365.751 181.358 359.431 179.941 353.112 179.296Z" fill="#FF6800"/>
        <path d="M349.63 187.93L348.211 191.409C354.531 191.667 360.979 192.826 367.298 195.404H375.423H375.552C373.36 194.244 371.038 193.084 368.588 192.182C362.398 189.605 356.078 188.316 349.63 187.93Z" fill="#FF6800"/>
        <path d="M406.891 152.236H399.927C418.369 162.545 432.943 177.621 442.615 195.275H446.097H446.613C437.585 178.137 424.044 163.06 406.891 152.236Z" fill="#FF6800"/>
        <path d="M387.933 152.236H378.132C379.937 152.88 381.743 153.525 383.548 154.169C404.699 162.545 421.464 177.235 432.427 195.275H436.554C425.72 176.719 409.084 161.385 387.933 152.236Z" fill="#FF6800"/>
        <path d="M381.614 159.194C375.552 156.746 369.362 155.071 363.042 153.911L361.753 157.261C367.943 158.292 374.134 159.967 380.324 162.416C397.734 169.245 411.921 180.971 421.851 195.275H426.107C415.79 179.554 400.572 166.668 381.614 159.194Z" fill="#FF6800"/>
        <path d="M378.389 167.441C372.328 164.993 366.009 163.318 359.818 162.416L358.529 165.766C364.719 166.668 371.038 168.343 377.1 170.663C390.77 176.075 402.119 184.708 410.889 195.275H415.403C406.117 183.291 393.608 173.369 378.389 167.441Z" fill="#FF6800"/>
    </g>
    <defs>
        <linearGradient id="paint0_linear_0_547" x1="286.303" y1="202.382" x2="317.248" y2="214.632" gradientUnits="userSpaceOnUse">
            <stop offset="0.00949693" stop-color="#2F2FED"/>
            <stop offset="0.4467" stop-color="#8134E1"/>
            <stop offset="1" stop-color="#E81A3D"/>
        </linearGradient>
        <linearGradient id="paint1_linear_0_547" x1="280.323" y1="200.091" x2="323.306" y2="217.106" gradientUnits="userSpaceOnUse">
            <stop offset="0.00949693" stop-color="#2F2FED"/>
            <stop offset="0.4467" stop-color="#8134E1"/>
            <stop offset="1" stop-color="#E81A3D"/>
        </linearGradient>
        <linearGradient id="paint2_linear_0_547" x1="272.937" y1="197.337" x2="330.115" y2="219.971" gradientUnits="userSpaceOnUse">
            <stop offset="0.00949693" stop-color="#2F2FED"/>
            <stop offset="0.4467" stop-color="#8134E1"/>
            <stop offset="1" stop-color="#E81A3D"/>
        </linearGradient>
        <linearGradient id="paint3_linear_0_547" x1="267.977" y1="195.272" x2="335.006" y2="221.806" gradientUnits="userSpaceOnUse">
            <stop offset="0.00949693" stop-color="#2F2FED"/>
            <stop offset="0.4467" stop-color="#8134E1"/>
            <stop offset="1" stop-color="#E81A3D"/>
        </linearGradient>
        <linearGradient id="paint4_linear_0_547" x1="262.6" y1="193.43" x2="340.552" y2="224.288" gradientUnits="userSpaceOnUse">
            <stop offset="0.00949693" stop-color="#2F2FED"/>
            <stop offset="0.4467" stop-color="#8134E1"/>
            <stop offset="1" stop-color="#E81A3D"/>
        </linearGradient>
        <linearGradient id="paint5_linear_0_547" x1="256.867" y1="191.165" x2="346.284" y2="226.561" gradientUnits="userSpaceOnUse">
            <stop offset="0.00949693" stop-color="#2F2FED"/>
            <stop offset="0.4467" stop-color="#8134E1"/>
            <stop offset="1" stop-color="#E81A3D"/>
        </linearGradient>
        <linearGradient id="paint6_linear_0_547" x1="251.133" y1="188.898" x2="352.015" y2="228.833" gradientUnits="userSpaceOnUse">
            <stop offset="0.00949693" stop-color="#2F2FED"/>
            <stop offset="0.4467" stop-color="#8134E1"/>
            <stop offset="1" stop-color="#E81A3D"/>
        </linearGradient>
        <linearGradient id="paint7_linear_0_547" x1="245.399" y1="186.633" x2="357.746" y2="231.106" gradientUnits="userSpaceOnUse">
            <stop offset="0.00949693" stop-color="#2F2FED"/>
            <stop offset="0.4467" stop-color="#8134E1"/>
            <stop offset="1" stop-color="#E81A3D"/>
        </linearGradient>
        <linearGradient id="paint8_linear_0_547" x1="239.665" y1="184.367" x2="363.476" y2="233.379" gradientUnits="userSpaceOnUse">
            <stop offset="0.00949693" stop-color="#2F2FED"/>
            <stop offset="0.4467" stop-color="#8134E1"/>
            <stop offset="1" stop-color="#E81A3D"/>
        </linearGradient>
        <linearGradient id="paint9_linear_0_547" x1="233.932" y1="182.101" x2="369.208" y2="235.651" gradientUnits="userSpaceOnUse">
            <stop offset="0.00949693" stop-color="#2F2FED"/>
            <stop offset="0.4467" stop-color="#8134E1"/>
            <stop offset="1" stop-color="#E81A3D"/>
        </linearGradient>
        <linearGradient id="paint10_linear_0_547" x1="228.198" y1="179.835" x2="374.939" y2="237.924" gradientUnits="userSpaceOnUse">
            <stop offset="0.00949693" stop-color="#2F2FED"/>
            <stop offset="0.4467" stop-color="#8134E1"/>
            <stop offset="1" stop-color="#E81A3D"/>
        </linearGradient>
        <linearGradient id="paint11_linear_0_547" x1="1177.27" y1="335.609" x2="970.204" y2="243.996" gradientUnits="userSpaceOnUse">
            <stop offset="0.00949693" stop-color="#2F2FED"/>
            <stop offset="0.4467" stop-color="#8134E1"/>
            <stop offset="1" stop-color="#E81A3D"/>
        </linearGradient>
        <clipPath id="clip0_0_547">
            <rect width="1532" height="743" fill="white"/>
        </clipPath>
    </defs>
</svg>
