    <svg width="687" height="580" viewBox="0 0 687 580" fill="none" xmlns="http://www.w3.org/2000/svg">
        <path d="M317.609 542.467L57.9909 439.926C55.8744 439.08 54.7456 436.682 55.5922 434.425L158.311 175.04C159.157 172.924 161.556 171.795 163.814 172.642L423.291 275.183C425.407 276.029 426.536 278.427 425.69 280.684L322.971 540.069C322.124 542.326 319.726 543.314 317.609 542.467Z" fill="#DC143C"/>
        <path d="M479.024 204.8C516.979 243.447 579.344 243.87 618.005 205.788C656.665 167.846 657.089 105.503 618.992 66.8564C581.037 28.2095 518.672 27.7863 480.012 65.869C441.492 103.952 441.069 166.295 479.024 204.8Z" fill="url(#paint0_linear_0_1218)"/>
        <path d="M400.433 433.861L140.956 331.32C138.839 330.473 137.711 328.076 138.557 325.819L241.276 66.4332C242.122 64.3175 244.521 63.1891 246.779 64.0354L506.256 166.718C508.372 167.564 509.501 169.962 508.655 172.219L405.936 431.604C405.089 433.72 402.55 434.707 400.433 433.861Z" fill="#8134E1"/>
        <path d="M269.495 183.643C280.483 183.643 289.39 174.739 289.39 163.756C289.39 152.772 280.483 143.868 269.495 143.868C258.508 143.868 249.601 152.772 249.601 163.756C249.601 174.739 258.508 183.643 269.495 183.643Z" fill="#FF6800"/>
        <path d="M428.088 109.876H329.603V126.66H428.088V109.876Z" fill="#DC143C"/>
        <path d="M176.795 126.66H374.189L331.86 109.876H183.426L176.795 126.66Z" fill="#8134E1"/>
        <path d="M336.375 200.569H233.374V217.354H336.375V200.569Z" fill="#DC143C"/>
        <path d="M336.375 200.569H269.636L263.005 217.354H336.375V200.569Z" fill="#2F2FED"/>
        <path d="M412.144 256L396.906 294.365H532.359V256H412.144Z" fill="#DC143C"/>
        <defs>
            <linearGradient id="paint0_linear_0_1218" x1="638.844" y1="175.547" x2="459.122" y2="96.072" gradientUnits="userSpaceOnUse">
                <stop offset="0.00949693" stop-color="#2F2FED"/>
                <stop offset="0.4467" stop-color="#8134E1"/>
                <stop offset="1" stop-color="#E81A3D"/>
            </linearGradient>
        </defs>
    </svg>
