<svg width="539" height="481" viewBox="0 0 539 481" fill="none" xmlns="http://www.w3.org/2000/svg">
    <path d="M284.644 43.0001H216V74.5316H284.644V43.0001Z" fill="#8134E1"/>
    <path d="M284.644 43.0001H260.476L248.034 74.5316H284.644V43.0001Z" fill="#FF4F00"/>
    <path d="M177.331 319.329C175.901 318.756 171.61 316.749 167.463 314.599C158.883 310.013 158.31 308.436 157.881 307.576C157.452 306.716 156.88 305.14 159.312 295.824C160.456 291.237 162.029 286.794 162.601 285.361C163.173 283.928 165.175 279.628 167.32 275.471C171.896 266.872 173.469 266.299 174.327 265.869C175.186 265.439 176.759 264.865 186.054 267.302C190.63 268.592 195.064 270.025 196.494 270.598C197.924 271.172 202.214 273.178 206.361 275.328C214.942 279.914 215.514 281.491 215.943 282.351C216.372 283.211 216.944 284.788 214.513 294.104C213.369 298.69 211.796 303.133 211.224 304.566C210.652 306 208.65 310.299 206.504 314.456C201.928 323.055 200.355 323.629 199.497 324.059C198.639 324.489 197.066 325.062 187.77 322.625C183.194 321.336 178.618 319.902 177.331 319.329ZM195.064 274.181C193.777 273.608 189.343 272.175 185.053 271.028C177.474 269.022 176.044 269.308 175.901 269.308C175.758 269.452 174.47 270.312 170.752 277.191C168.607 281.204 166.748 285.361 166.176 286.651C165.604 287.941 164.174 292.384 163.03 296.684C161.028 304.28 161.314 305.713 161.314 305.856C161.457 306 162.315 307.29 169.179 311.016C173.183 313.166 177.331 315.029 178.618 315.602C179.905 316.176 184.338 317.609 188.628 318.756C196.208 320.762 197.638 320.476 197.781 320.476C197.924 320.332 199.211 319.472 202.929 312.593C205.074 308.58 206.933 304.423 207.506 303.133C208.078 301.843 209.508 297.4 210.652 293.1C212.654 285.504 212.368 284.071 212.368 283.928C212.225 283.784 211.367 282.494 204.502 278.768C200.498 276.618 196.351 274.611 195.064 274.181Z" fill="url(#paint0_linear_0_783)"/>
    <path d="M179.047 331.082C175.615 329.648 171.753 327.785 167.892 325.492C155.593 317.896 148.443 308.293 147.442 304.136C146.441 299.55 150.302 285.647 156.308 275.901C162.315 266.155 173.04 256.552 177.617 255.406C182.05 254.403 196.208 258.272 205.789 264.292C215.371 270.168 225.096 281.204 226.24 285.647C226.955 288.944 225.811 300.123 217.373 313.883C209.079 327.355 199.783 333.375 196.351 334.235H196.208C196.208 334.235 196.208 334.235 196.065 334.235L195.35 334.378C192.347 334.808 186.34 333.948 179.047 331.082ZM194.349 263.002C187.198 260.136 180.62 258.846 178.618 259.276C175.758 259.992 165.747 268.305 159.741 278.051C153.734 287.654 150.731 300.41 151.446 303.277C152.018 305.426 157.595 314.313 170.18 322.195C182.479 329.792 192.776 331.082 195.207 330.652L195.922 330.508C198.782 329.362 206.934 323.915 214.227 311.876C222.092 299.12 223.093 288.944 222.521 286.651C221.806 283.784 213.369 273.608 203.787 267.732C200.784 265.869 197.495 264.292 194.349 263.002Z" fill="url(#paint1_linear_0_783)"/>
    <path d="M173.899 342.834C164.746 339.251 157.882 331.225 152.304 324.632C140.577 310.873 122.701 289.947 157.309 260.279C191.918 230.611 211.939 253.973 221.52 265.295C226.383 271.028 233.676 279.485 235.535 290.521C237.823 303.706 231.388 316.892 216.515 329.648C201.356 342.691 188.056 347.277 176.044 343.551C175.329 343.408 174.614 343.121 173.899 342.834ZM199.068 251.679C189.343 247.81 176.473 248.813 159.741 263.145C128.136 290.377 143.152 307.863 155.164 322.052C161.171 329.075 167.892 336.958 177.188 339.825C187.77 343.121 199.926 338.821 213.941 326.639C227.67 314.886 233.676 302.847 231.674 291.094C229.958 281.204 223.094 273.035 218.517 267.732C214.084 262.572 207.792 255.119 199.068 251.679Z" fill="url(#paint2_linear_0_783)"/>
    <path d="M162.029 346.704C154.02 343.551 147.585 338.535 142.437 331.655C133.856 320.046 131.854 305.713 131.282 298.26C130.71 289.087 131.425 275.758 138.146 263.719C146.584 248.813 161.743 240.5 183.337 239.21C204.788 237.92 220.805 244.8 231.245 259.562C240.398 272.462 241.971 287.224 242.114 291.381C242.4 295.537 242.543 310.299 235.106 324.345C226.526 340.398 211.367 349.141 190.059 350.431C179.476 351.147 170.037 350.001 162.029 346.704ZM209.079 246.663C201.785 243.796 193.348 242.65 183.766 243.223C163.602 244.513 149.444 252.109 141.722 265.725C135.143 277.478 134.857 291.094 135.286 298.117C135.715 305.14 137.574 318.612 145.583 329.505C154.878 342.261 169.894 347.994 190.059 346.704C209.937 345.557 224.095 337.388 231.96 322.625C239.254 309.153 238.682 294.534 238.539 291.81C238.253 287.941 236.822 274.038 228.385 261.999C223.38 254.833 216.801 249.673 209.079 246.663Z" fill="url(#paint3_linear_0_783)"/>
    <path d="M162.315 356.88C128.565 343.551 111.976 304.996 125.276 271.172C138.575 237.347 177.045 220.721 210.795 234.05C244.545 247.38 261.134 285.934 247.834 319.759C234.534 353.584 196.065 370.209 162.315 356.88ZM209.365 237.633C177.617 225.021 141.436 240.643 128.851 272.605C116.266 304.566 131.854 340.684 163.745 353.297C195.493 365.91 231.674 350.287 244.259 318.326C256.844 286.507 241.256 250.246 209.365 237.633Z" fill="url(#paint4_linear_0_783)"/>
    <path d="M158.74 365.91C119.984 350.574 100.964 306.43 116.266 267.588C131.568 228.747 175.615 209.685 214.37 225.021C253.125 240.357 272.146 284.501 256.844 323.342C241.542 362.183 197.495 381.246 158.74 365.91ZM212.94 228.604C176.187 213.985 134.428 232.187 119.841 269.022C105.254 305.856 123.416 347.707 160.17 362.327C196.923 376.946 238.681 358.743 253.268 321.909C267.855 285.074 249.693 243.223 212.94 228.604Z" fill="url(#paint5_linear_0_783)"/>
    <path d="M155.164 374.939C111.547 357.597 89.9523 307.863 107.256 264.005C124.56 220.148 174.184 198.649 217.945 215.991C261.706 233.334 283.157 283.068 265.853 326.925C248.549 370.783 198.925 392.282 155.164 374.939ZM216.515 219.574C174.757 203.092 127.421 223.588 110.832 265.439C94.2426 307.29 114.836 354.73 156.594 371.356C198.353 387.839 245.689 367.343 262.278 325.492C278.867 283.641 258.274 236.2 216.515 219.574Z" fill="url(#paint6_linear_0_783)"/>
    <path d="M151.589 383.969C102.823 364.62 78.9407 309.296 98.2469 260.422C117.553 211.548 172.754 187.613 221.52 206.962C270.286 226.311 294.169 281.634 274.863 330.508C255.7 379.239 200.355 403.318 151.589 383.969ZM220.09 210.545C173.326 192.056 120.27 214.988 101.822 261.855C83.3739 308.723 106.255 361.897 153.019 380.386C199.783 398.875 252.839 375.942 271.287 329.075C289.736 282.208 266.854 229.034 220.09 210.545Z" fill="url(#paint7_linear_0_783)"/>
    <path d="M148.014 392.998C94.3858 371.786 67.9292 310.586 89.2375 256.839C110.403 203.092 171.468 176.577 225.096 197.932C278.724 219.288 305.181 280.344 283.872 334.091C262.707 387.839 201.785 414.354 148.014 392.998ZM223.666 201.515C172.04 181.02 113.263 206.532 92.8127 258.272C72.3625 310.013 97.818 368.92 149.444 389.415C201.07 409.911 259.847 384.399 280.297 332.658C300.747 280.774 275.292 222.011 223.666 201.515Z" fill="url(#paint8_linear_0_783)"/>
    <path d="M144.582 402.028C85.9481 378.809 57.0603 312.019 80.3708 253.256C103.538 194.493 170.18 165.541 228.814 188.903C287.447 212.122 316.335 278.911 293.025 337.675C269.714 396.438 203.215 425.246 144.582 402.028ZM227.241 192.486C170.609 169.984 106.255 197.932 83.803 254.689C61.3506 311.446 89.2373 375.942 145.869 398.445C202.5 420.947 266.854 392.998 289.307 336.241C311.759 279.485 283.872 214.988 227.241 192.486Z" fill="url(#paint9_linear_0_783)"/>
    <path d="M141.007 411.057C77.3677 385.832 46.0487 313.453 71.2183 249.673C96.3878 185.893 168.607 154.505 232.246 179.73C295.885 204.955 327.204 277.335 302.034 341.114C276.722 404.894 204.502 436.282 141.007 411.057ZM230.816 183.456C169.179 159.091 99.248 189.333 74.7935 251.106C50.482 312.879 80.6569 382.965 142.294 407.474C203.93 431.983 273.862 401.598 298.316 339.825C322.771 278.051 292.453 207.822 230.816 183.456Z" fill="url(#paint10_linear_0_783)"/>
    <path d="M437.321 206.245H413.867H329.492H284.301L257.559 274.181H302.749H413.867H437.321V206.245Z" fill="#8134E1"/>
    <path d="M288.02 274.181H311.33H395.705H440.896L467.782 206.245H422.591H311.33H288.02V274.181Z" fill="#8134E1"/>
    <path d="M302.177 243.08C292.596 239.21 282.728 236.774 272.86 235.484L270.715 240.787C280.583 241.933 290.451 244.37 300.175 248.24C315.477 254.259 328.634 263.289 339.646 274.181H347.368C335.212 260.852 319.91 250.103 302.177 243.08Z" fill="#FF6800"/>
    <path d="M267.569 248.956L265.424 254.259C275.292 255.119 285.302 257.269 295.027 261.139C303.464 264.435 311.33 268.878 318.337 274.038H327.204C318.48 266.585 308.327 260.422 297.029 255.979C287.304 252.253 277.437 249.959 267.569 248.956Z" fill="#FF6800"/>
    <path d="M262.135 262.572L259.99 268.018C270 268.305 280.011 270.312 289.879 274.181H302.749H302.892C299.46 272.318 295.742 270.455 292.024 269.022C282.156 265.152 272.145 263.002 262.135 262.572Z" fill="#FF6800"/>
    <path d="M352.23 206.245H341.362C370.393 222.441 393.274 246.233 408.433 274.181H414.01H414.725C400.424 246.95 379.116 223.301 352.23 206.245Z" fill="#FF6800"/>
    <path d="M322.342 206.245H306.897C309.757 207.249 312.617 208.252 315.477 209.398C348.655 222.584 374.969 245.803 392.273 274.181H398.708C381.69 244.943 355.52 220.721 322.342 206.245Z" fill="#FF6800"/>
    <path d="M312.474 217.138C302.892 213.412 293.168 210.545 283.443 208.825L281.298 214.128C291.023 215.848 300.89 218.428 310.472 222.298C337.93 233.19 360.096 251.536 375.827 274.181H382.548C365.959 249.243 342.077 228.891 312.474 217.138Z" fill="#FF6800"/>
    <path d="M307.326 230.181C297.744 226.311 287.877 223.731 278.152 222.298L276.007 227.601C285.874 229.034 295.599 231.614 305.324 235.34C326.775 243.796 344.651 257.412 358.38 274.181H365.387C350.8 255.119 331.208 239.64 307.326 230.181Z" fill="#FF6800"/>
    <defs>
        <linearGradient id="paint0_linear_0_783" x1="162.561" y1="285.276" x2="211.244" y2="304.488" gradientUnits="userSpaceOnUse">
            <stop offset="0.00949693" stop-color="#2F2FED"/>
            <stop offset="0.4467" stop-color="#8134E1"/>
            <stop offset="1" stop-color="#E81A3D"/>
        </linearGradient>
        <linearGradient id="paint1_linear_0_783" x1="153.162" y1="281.663" x2="220.782" y2="308.35" gradientUnits="userSpaceOnUse">
            <stop offset="0.00949693" stop-color="#2F2FED"/>
            <stop offset="0.4467" stop-color="#8134E1"/>
            <stop offset="1" stop-color="#E81A3D"/>
        </linearGradient>
        <linearGradient id="paint2_linear_0_783" x1="141.552" y1="277.321" x2="231.502" y2="312.82" gradientUnits="userSpaceOnUse">
            <stop offset="0.00949693" stop-color="#2F2FED"/>
            <stop offset="0.4467" stop-color="#8134E1"/>
            <stop offset="1" stop-color="#E81A3D"/>
        </linearGradient>
        <linearGradient id="paint3_linear_0_783" x1="133.756" y1="274.065" x2="239.204" y2="315.68" gradientUnits="userSpaceOnUse">
            <stop offset="0.00949693" stop-color="#2F2FED"/>
            <stop offset="0.4467" stop-color="#8134E1"/>
            <stop offset="1" stop-color="#E81A3D"/>
        </linearGradient>
        <linearGradient id="paint4_linear_0_783" x1="125.304" y1="271.161" x2="247.936" y2="319.558" gradientUnits="userSpaceOnUse">
            <stop offset="0.00949693" stop-color="#2F2FED"/>
            <stop offset="0.4467" stop-color="#8134E1"/>
            <stop offset="1" stop-color="#E81A3D"/>
        </linearGradient>
        <linearGradient id="paint5_linear_0_783" x1="116.292" y1="267.59" x2="256.96" y2="323.105" gradientUnits="userSpaceOnUse">
            <stop offset="0.00949693" stop-color="#2F2FED"/>
            <stop offset="0.4467" stop-color="#8134E1"/>
            <stop offset="1" stop-color="#E81A3D"/>
        </linearGradient>
        <linearGradient id="paint6_linear_0_783" x1="107.279" y1="264.016" x2="265.983" y2="326.649" gradientUnits="userSpaceOnUse">
            <stop offset="0.00949693" stop-color="#2F2FED"/>
            <stop offset="0.4467" stop-color="#8134E1"/>
            <stop offset="1" stop-color="#E81A3D"/>
        </linearGradient>
        <linearGradient id="paint7_linear_0_783" x1="98.2665" y1="260.445" x2="275.006" y2="330.195" gradientUnits="userSpaceOnUse">
            <stop offset="0.00949693" stop-color="#2F2FED"/>
            <stop offset="0.4467" stop-color="#8134E1"/>
            <stop offset="1" stop-color="#E81A3D"/>
        </linearGradient>
        <linearGradient id="paint8_linear_0_783" x1="89.2533" y1="256.872" x2="284.029" y2="333.74" gradientUnits="userSpaceOnUse">
            <stop offset="0.00949693" stop-color="#2F2FED"/>
            <stop offset="0.4467" stop-color="#8134E1"/>
            <stop offset="1" stop-color="#E81A3D"/>
        </linearGradient>
        <linearGradient id="paint9_linear_0_783" x1="80.2413" y1="253.299" x2="293.053" y2="337.286" gradientUnits="userSpaceOnUse">
            <stop offset="0.00949693" stop-color="#2F2FED"/>
            <stop offset="0.4467" stop-color="#8134E1"/>
            <stop offset="1" stop-color="#E81A3D"/>
        </linearGradient>
        <linearGradient id="paint10_linear_0_783" x1="71.228" y1="249.726" x2="302.076" y2="340.831" gradientUnits="userSpaceOnUse">
            <stop offset="0.00949693" stop-color="#2F2FED"/>
            <stop offset="0.4467" stop-color="#8134E1"/>
            <stop offset="1" stop-color="#E81A3D"/>
        </linearGradient>
    </defs>
</svg>
